<svg width="24" height="24" viewBox="0 0 24 24" fill="#000000" xmlns="http://www.w3.org/2000/svg">
<g clip-path="url(#clip0_4418_4976)">
<path opacity="0.4" d="M11.9702 22C17.4931 22 21.9702 17.5228 21.9702 12C21.9702 6.47715 17.4931 2 11.9702 2C6.44737 2 1.97021 6.47715 1.97021 12C1.97021 17.5228 6.44737 22 11.9702 22Z"/>
<path d="M15.25 11.2992H13.55V7.3392C13.55 6.4192 13.05 6.2292 12.44 6.9192L12 7.4192L8.27997 11.6492C7.76997 12.2292 7.97997 12.6992 8.74997 12.6992H10.45V16.6592C10.45 17.5792 10.95 17.7692 11.56 17.0792L12 16.5792L15.72 12.3492C16.23 11.7692 16.02 11.2992 15.25 11.2992Z"/>
</g>
<defs>
<clipPath id="clip0_4418_4976">
<rect width="24" height="24" fill="white"/>
</clipPath>
</defs>
</svg>