<svg width="24" height="24" viewBox="0 0 24 24" fill="#000000" xmlns="http://www.w3.org/2000/svg">
<g clip-path="url(#clip0_4418_4967)">
<path d="M13.1901 16.2891H10.8101V17.7091H13.1901V16.2891Z"/>
<path d="M7.94977 2.71C7.94977 3.11 7.62977 3.43 7.23977 3.43H6.28977C4.57977 3.43 3.18977 4.82 3.18977 6.52V12.4C2.33977 12.83 1.75977 13.71 1.75977 14.73V6.52C1.75977 4.03 3.78977 2 6.28977 2H7.23977C7.62977 2 7.94977 2.32 7.94977 2.71Z"/>
<path d="M22.2398 6.52V14.73C22.2398 13.71 21.6598 12.83 20.8098 12.4V6.52C20.8098 4.82 19.4198 3.43 17.7098 3.43H16.7598C16.3698 3.43 16.0498 3.11 16.0498 2.71C16.0498 2.32 16.3698 2 16.7598 2H17.7098C20.2098 2 22.2398 4.03 22.2398 6.52Z"/>
<path opacity="0.4" d="M10.8098 14.7294V19.3794C10.8098 20.8294 9.62977 21.9994 8.18976 21.9994H4.37977C2.93977 21.9994 1.75977 20.8294 1.75977 19.3794V14.7294C1.75977 13.7094 2.33977 12.8294 3.18977 12.3994C3.54977 12.2094 3.94977 12.1094 4.37977 12.1094H8.18976C9.62977 12.1094 10.8098 13.2794 10.8098 14.7294Z"/>
<path opacity="0.4" d="M22.2399 14.7294V19.3794C22.2399 20.8294 21.0599 21.9994 19.6199 21.9994H15.8099C14.3699 21.9994 13.1899 20.8294 13.1899 19.3794V14.7294C13.1899 13.2794 14.3699 12.1094 15.8099 12.1094H19.6199C20.0499 12.1094 20.4499 12.2094 20.8099 12.3994C21.6599 12.8294 22.2399 13.7094 22.2399 14.7294Z"/>
</g>
<defs>
<clipPath id="clip0_4418_4967">
<rect width="24" height="24" fill="white"/>
</clipPath>
</defs>
</svg>