<svg width="24" height="24" viewBox="0 0 24 24" fill="#000000" xmlns="http://www.w3.org/2000/svg">
<g clip-path="url(#clip0_4418_4947)">
<path opacity="0.4" d="M9.50978 4.23062L18.0698 8.51062C21.9098 10.4306 21.9098 13.5706 18.0698 15.4906L9.50978 19.7706C3.74978 22.6506 1.39978 20.2906 4.27978 14.5406L5.14978 12.8106C5.39978 12.3006 5.39978 11.7106 5.14978 11.2006L4.27978 9.46062C1.39978 3.71062 3.75978 1.35062 9.50978 4.23062Z"/>
<path d="M14.8399 12.75H9.43994C9.02994 12.75 8.68994 12.41 8.68994 12C8.68994 11.59 9.02994 11.25 9.43994 11.25H14.8399C15.2499 11.25 15.5899 11.59 15.5899 12C15.5899 12.41 15.2499 12.75 14.8399 12.75Z"/>
</g>
<defs>
<clipPath id="clip0_4418_4947">
<rect width="24" height="24" fill="white"/>
</clipPath>
</defs>
</svg>