<svg width="24" height="24" viewBox="0 0 24 24" fill="#000000" xmlns="http://www.w3.org/2000/svg">
<g clip-path="url(#clip0_4418_4900)">
<path opacity="0.4" d="M20.7802 14.181V17.121C20.7802 18.221 19.8802 19.121 18.7802 19.121H5.22021C4.12021 19.121 3.22021 18.221 3.22021 17.121V14.181C3.22021 9.36096 7.12022 5.46096 11.9402 5.46096H12.0602C16.8802 5.45096 20.7802 9.36096 20.7802 14.181Z"/>
<path d="M12.75 2.5293V5.4893C12.52 5.4693 12.29 5.4593 12.06 5.4593H11.94C11.71 5.4593 11.48 5.4693 11.25 5.4893V2.5293C11.25 2.1193 11.59 1.7793 12 1.7793C12.41 1.7793 12.75 2.1193 12.75 2.5293Z"/>
<path d="M15.3202 19.1094C15.2002 20.8494 13.7602 22.2194 12.0002 22.2194C10.2402 22.2194 8.79018 20.8494 8.68018 19.1094H15.3202Z"/>
</g>
<defs>
<clipPath id="clip0_4418_4900">
<rect width="24" height="24" fill="white"/>
</clipPath>
</defs>
</svg>