<svg width="24" height="24" viewBox="0 0 24 24" fill="#000000" xmlns="http://www.w3.org/2000/svg">
<g clip-path="url(#clip0_4418_5153)">
<path opacity="0.4" d="M5.5 12C5.5 8.41 8.41 5.5 12 5.5C15.59 5.5 18.5 8.41 18.5 12C18.5 14.08 17.52 15.94 16 17.13H15.99C14.89 17.99 13.51 18.5 12 18.5C10.51 18.5 9.14 18 8.04 17.15H8.03C6.49 15.96 5.5 14.1 5.5 12Z"/>
<path d="M8.02979 17.1509H8.03979C9.13979 18.0009 10.5098 18.5009 11.9998 18.5009C13.5098 18.5009 14.8898 17.9909 15.9898 17.1309H15.9998L15.4898 19.6009C14.9998 21.5009 13.8998 22.0009 12.5498 22.0009H11.4598C10.1098 22.0009 8.99979 21.5009 8.51979 19.5909L8.02979 17.1509Z"/>
<path d="M8.02979 6.85H8.03979C9.13979 6 10.5098 5.5 11.9998 5.5C13.5098 5.5 14.8898 6.01 15.9898 6.87H15.9998L15.4898 4.4C14.9998 2.5 13.8998 2 12.5498 2H11.4598C10.1098 2 8.99979 2.5 8.51979 4.41L8.02979 6.85Z"/>
<path d="M13.4 14.6002C13.21 14.6002 13.02 14.5302 12.87 14.3802L11.47 12.9802C11.33 12.8402 11.25 12.6502 11.25 12.4502V9.66016C11.25 9.25016 11.59 8.91016 12 8.91016C12.41 8.91016 12.75 9.25016 12.75 9.66016V12.1402L13.93 13.3202C14.22 13.6102 14.22 14.0902 13.93 14.3802C13.78 14.5302 13.59 14.6002 13.4 14.6002Z"/>
</g>
<defs>
<clipPath id="clip0_4418_5153">
<rect width="24" height="24" fill="white"/>
</clipPath>
</defs>
</svg>