<svg width="24" height="24" viewBox="0 0 24 24" fill="#000000" xmlns="http://www.w3.org/2000/svg">
<g clip-path="url(#clip0_4418_4227)">
<path opacity="0.4" d="M16.1898 2H7.81978C4.17978 2 2.00977 4.17 2.00977 7.81V16.18C2.00977 19.82 4.17978 21.99 7.81978 21.99H16.1898C19.8298 21.99 21.9998 19.82 21.9998 16.18V7.81C21.9998 4.17 19.8298 2 16.1898 2Z"/>
<path d="M13.5799 14.6899L11.2599 17.0099C10.6199 17.6599 9.56993 17.6599 8.91993 17.0099L6.98994 15.0799C6.33994 14.4299 6.33994 13.3799 6.98994 12.7399L9.30993 10.4199L13.5799 14.6899Z"/>
<path opacity="0.6" d="M17.0101 11.2604L13.5801 14.6904L9.31006 10.4204L12.7401 6.99043C13.3801 6.34043 14.4301 6.34043 15.0801 6.99043L17.0101 8.92043C17.6601 9.57043 17.6601 10.6204 17.0101 11.2604Z"/>
</g>
<defs>
<clipPath id="clip0_4418_4227">
<rect width="24" height="24" fill="white"/>
</clipPath>
</defs>
</svg>