<svg width="88" height="88" viewBox="0 0 88 88" fill="none" xmlns="http://www.w3.org/2000/svg">
<path d="M70.6666 13.7435C71.658 12.7522 73.2652 12.7522 74.2566 13.7435C75.2478 14.7348 75.2478 16.3421 74.2566 17.3334L56.2513 35.3386H70.4306C71.8326 35.3386 72.9693 36.475 72.9693 37.877C72.9693 39.2789 71.8325 40.4153 70.4306 40.4153H51.1746L31.8821 59.7078H50.123C51.525 59.7078 52.6614 60.8442 52.6614 62.2462C52.6614 63.6481 51.525 64.7845 50.123 64.7845H26.8054L13.3334 78.2565C12.3421 79.2478 10.7348 79.2478 9.7435 78.2565C8.75217 77.2652 8.75217 75.6579 9.7435 74.6666L23.2155 61.1946V35.846C23.2156 34.4441 24.3519 33.3077 25.7538 33.3077C27.1557 33.3077 28.2921 34.4442 28.2922 35.846V56.1179L47.5847 36.8254V17.5694C47.5847 16.1674 48.7211 15.0307 50.123 15.0307C51.525 15.0307 52.6614 16.1674 52.6614 17.5694V31.7487L70.6666 13.7435Z" fill="#13863D"/>
</svg>
