<svg width="411" height="440" viewBox="0 0 411 440" fill="none" xmlns="http://www.w3.org/2000/svg">
<g id="icone-logo-produtor-do-bem" clip-path="url(#clip0_572_1439)">
<path id="fill" d="M411 302.5C411 378.461 349.685 440 274 440H42.6221C54.4345 440 65.0292 435.233 72.7621 427.472C80.495 419.711 85.2443 409.078 85.2443 397.222V275H137C203.308 275 258.595 227.761 271.26 165H274C311.873 165 346.092 180.4 370.874 205.272C395.656 230.144 411 264.489 411 302.5Z" fill="#8AC548"/>
<path id="p" d="M137 0C61.3151 0 0 61.5389 0 137.5V397.222C0 420.872 19.0582 440 42.6222 440C66.1862 440 85.2445 420.872 85.2445 397.222V275H136.391C136.391 275 136.756 275 137 275C212.685 275 274 213.461 274 137.5C274 61.5389 212.685 0 137 0Z" fill="#008A3B"/>
<g id="pe-galinha">
<path id="Vector" d="M206.9 62.7C206.596 61.9667 206.17 61.2333 205.622 60.6833C205.074 60.1333 204.343 59.6444 203.612 59.4C202.882 58.9722 202.029 58.9722 201.298 58.9722C200.568 58.9722 199.715 59.0944 198.985 59.4C198.254 59.7056 197.523 60.1333 196.975 60.6833L152.587 106.394C152.1 96.6778 151.491 83.2944 151.065 70.7667C151.065 69.9111 150.943 69.0556 150.639 68.3222C150.213 67.5889 149.786 66.8556 149.178 66.3056C148.63 65.7556 147.899 65.2667 147.168 65.0222C146.316 64.5944 145.585 64.5944 144.733 64.5944C143.88 64.5944 143.028 64.9 142.297 65.1444C141.566 65.45 140.836 65.8778 140.288 66.6111C139.74 67.3444 139.253 68.0778 139.009 68.75C138.705 69.4833 138.705 70.3389 138.705 71.1944C139.496 92.8278 140.531 108.167 141.932 117.333L86.1576 174.839L88.5322 119.533C88.654 117.822 88.106 116.233 86.9491 115.072C85.7922 113.789 84.2091 113.056 82.626 113.056C80.9211 112.933 79.338 113.483 78.1811 114.644C77.0242 115.806 76.1718 117.394 76.1718 118.983L73.3709 188.039L41.4042 220.978C40.6736 221.833 40.1256 222.994 39.8211 224.156C39.6993 225.439 39.8211 226.6 40.2473 227.761C40.6736 228.922 41.526 229.9 42.5611 230.511C43.4745 231.061 44.6922 231.428 45.7882 231.489C46.5798 231.489 47.3713 231.367 48.0411 231.122C48.7718 230.694 49.5025 230.267 50.0505 229.656L82.5651 196.167L144.672 195.494C146.255 195.494 147.838 194.761 148.995 193.6C150.152 192.439 150.882 190.85 150.882 189.261C150.882 187.672 150.152 186.083 148.995 184.922C147.838 183.761 146.255 183.028 144.672 183.028L94.8038 183.517L148.995 127.661C154.17 127.967 174.751 130.35 193.261 132.794H194.114C195.697 132.794 197.28 132.061 198.437 131.083C199.594 129.922 200.446 128.456 200.446 126.928C200.568 125.339 200.02 123.75 198.985 122.589C197.95 121.428 196.549 120.572 194.966 120.45C178.404 118.372 167.566 116.967 160.198 116.172L205.622 69.3611C206.17 68.8111 206.657 68.0778 206.9 67.3444C207.326 66.6111 207.326 65.7556 207.326 65.0222C207.326 64.2889 207.205 63.4333 206.9 62.7Z" fill="#8AC548"/>
</g>
<path id="circle" d="M334.767 302.561C334.767 310.628 332.332 318.45 327.887 325.233C323.442 331.894 317.109 337.211 309.62 340.267C302.131 343.322 294.093 344.178 286.178 342.589C278.262 341 271.077 337.089 265.354 331.467C259.752 325.844 255.855 318.45 254.272 310.567C252.689 302.622 253.541 294.433 256.586 287.039C259.63 279.706 264.928 273.167 271.564 268.706C278.201 264.244 286.117 261.8 294.154 261.8C302.192 261.8 304.81 262.839 309.681 264.856C314.552 266.872 318.997 269.928 322.894 273.656C326.608 277.383 329.653 281.906 331.662 286.917C333.671 291.806 334.828 297.183 334.828 302.5" fill="#008A3B"/>
</g>
<defs>
<clipPath id="clip0_572_1439">
<rect width="411" height="440" fill="white"/>
</clipPath>
</defs>
</svg>
