<svg width="308" height="308" viewBox="0 0 308 308" fill="none" xmlns="http://www.w3.org/2000/svg">
<g id="ilustracao-certificacoes-mesa" clip-path="url(#clip0_574_1447)">
<path id="Vector" opacity="0.08" d="M358.021 194.258L178.59 297.623L8.97905 200.023L0 205.189L169.626 302.789L178.575 307.985C178.65 307.985 187.629 302.819 187.629 302.819C187.584 302.789 367.015 199.439 367.015 199.439L358.036 194.273L358.021 194.258Z" fill="#202022"/>
<path id="Vector_2" opacity="0.08" d="M168.395 196.998C168.395 196.998 177.494 201.385 187.344 200.247C193.845 199.498 201.323 195.83 201.323 195.83L262.359 232.546L357.585 177.412L191.443 79.7515L19.9399 181.41L107.523 232.336L168.395 196.998Z" fill="#202022"/>
<g id="Group">
<g id="Group_2">
<g id="Group_3">
<path id="Vector_3" d="M185.572 0.748703L78.8445 62.2768L26.5918 101.284V196.998L92.298 233.31L164.851 191.472C165.692 192.64 167.164 193.748 169.296 194.677C175.287 197.297 184.446 197.687 191.413 195.875L193.635 195.111C197.839 193.629 199.791 191.472 200.662 189.466L269.522 229.491L337.39 191.457V97.4358L284.927 58.0991L185.572 0.748703Z" fill="#0F6B31"/>
<g id="Group_4">
<g id="Group_5">
<path id="Vector_4" d="M139.205 281.421L116.683 268.454V224.625C116.683 217.497 121.728 214.622 127.944 218.201C134.16 221.78 139.205 230.465 139.205 237.592V281.421Z" fill="#0F6B31"/>
<path id="Vector_5" d="M146.713 259.17V247.385C146.713 244.959 148.665 243.402 150.962 244.241C154.311 245.454 157.223 250.066 157.223 253.764V292.232L146.713 286.183V259.17Z" fill="#0F6B31"/>
<path id="Vector_6" d="M172.239 300.738L161.728 294.688V255.905C161.728 253.48 163.68 251.922 165.977 252.761C169.326 253.974 172.239 258.586 172.239 262.284V300.753V300.738Z" fill="#0F6B31"/>
</g>
<g id="Group_6">
<path id="Vector_7" d="M248.095 225.119C248.095 221.435 245.002 220.372 241.639 223.517C239.446 225.568 238.32 228.503 238.32 231.498V266.567L248.11 260.937V225.134L248.095 225.119Z" fill="#0F6B31"/>
<path id="Vector_8" d="M223.29 276.674L233.801 270.625V231.842C233.801 229.417 231.849 227.859 229.551 228.698C226.203 229.911 223.29 234.523 223.29 238.221V276.689V276.674Z" fill="#0F6B31"/>
<path id="Vector_9" d="M208.275 285.269L218.785 279.22V240.437C218.785 238.012 216.834 236.454 214.536 237.293C211.188 238.506 208.275 243.118 208.275 246.816V285.284V285.269Z" fill="#0F6B31"/>
<path id="Vector_10" d="M193.26 280.133V293.79L203.77 287.74V248.958C203.77 246.532 201.818 244.974 199.521 245.813C196.173 247.026 193.26 251.638 193.26 255.336V280.133Z" fill="#0F6B31"/>
<path id="Vector_11" d="M178.245 302.295L188.755 296.245V257.463C188.755 255.037 186.803 253.48 184.506 254.318C181.158 255.531 178.245 260.128 178.245 263.842V302.295Z" fill="#0F6B31"/>
</g>
<g id="Group_7">
<path id="Vector_12" d="M25.0902 215.461L14.5796 209.411V170.629C14.5796 168.203 16.5316 166.646 18.8289 167.484C22.1772 168.697 25.0902 173.309 25.0902 177.008V215.476V215.461Z" fill="#0F6B31"/>
<path id="Vector_13" d="M40.1053 224.071L29.5947 218.021V179.239C29.5947 176.813 31.5467 175.256 33.844 176.094C37.1924 177.307 40.1053 181.919 40.1053 185.618V224.086V224.071Z" fill="#0F6B31"/>
<path id="Vector_14" d="M43.829 189.451C43.829 185.767 46.9221 184.704 50.2855 187.849C52.4777 189.9 53.6038 192.835 53.6038 195.83V230.899L43.814 225.269V189.466L43.829 189.451Z" fill="#0F6B31"/>
<path id="Vector_15" d="M68.6341 241.096L58.1235 235.047V196.264C58.1235 193.838 60.0755 192.281 62.3728 193.12C65.7212 194.332 68.6341 198.944 68.6341 202.643V241.096Z" fill="#0F6B31"/>
<path id="Vector_16" d="M83.6493 249.601L73.1387 243.552V204.769C73.1387 202.344 75.0906 200.786 77.388 201.625C80.7363 202.838 83.6493 207.45 83.6493 211.148V249.601Z" fill="#0F6B31"/>
<path id="Vector_17" d="M97.9437 256.43L88.1538 250.799V215.071C88.1538 212.271 90.316 210.789 92.8085 212.077C95.6163 213.544 97.9437 217.437 97.9437 220.627V256.43Z" fill="#0F6B31"/>
<path id="Vector_18" d="M113.68 266.657L103.169 260.607V221.825C103.169 219.399 105.121 217.842 107.418 218.68C110.767 219.893 113.68 224.505 113.68 228.204V266.672V266.657Z" fill="#0F6B31"/>
</g>
<g id="Group_8">
<path id="Vector_19" d="M296.864 234.088L307.375 228.039V189.256C307.375 186.83 305.423 185.273 303.126 186.112C299.777 187.325 296.864 191.937 296.864 195.635V234.103V234.088Z" fill="#0F6B31"/>
<path id="Vector_20" d="M281.849 242.594L292.36 236.544V197.762C292.36 195.336 290.408 193.778 288.11 194.617C284.762 195.83 281.849 200.442 281.849 204.14V242.609V242.594Z" fill="#0F6B31"/>
<path id="Vector_21" d="M266.834 251.129L277.345 245.079V206.297C277.345 203.871 275.393 202.314 273.095 203.152C269.747 204.365 266.834 208.977 266.834 212.676V251.144V251.129Z" fill="#0F6B31"/>
<path id="Vector_22" d="M253.32 259.649L263.831 253.599V214.817C263.831 212.391 261.879 210.834 259.582 211.672C256.233 212.885 253.32 217.497 253.32 221.196V259.664V259.649Z" fill="#0F6B31"/>
</g>
</g>
</g>
<g id="Group_9">
<g id="Group_10">
<path id="Vector_23" d="M102.043 145.143L25.9009 100.88L78.8443 62.2768L102.043 145.143Z" fill="#0B5025"/>
<path id="Vector_24" d="M185.497 96.732L101.667 145.113L78.8442 62.2768L185.572 0.748703L185.497 96.732Z" fill="#0F6B31"/>
<path id="Vector_25" d="M261.999 141.175L338.141 96.9117L284.957 58.0991L261.999 141.175Z" fill="#0B5025"/>
<path id="Vector_26" d="M185.752 0.748703L185.677 96.732L262.51 140.935L285.138 58.0991L185.752 0.748703Z" fill="#0F6B31"/>
<path id="Vector_27" d="M212.779 128.462V181.305L236.804 194.782V142.433L212.779 128.462Z" fill="#0F6B31"/>
<path id="Vector_28" d="M79.1445 188.058L49.1143 170.868V131.651L79.1445 148.841V188.043V188.058Z" fill="#0B5025"/>
<path id="Vector_29" d="M286.354 184.03V144.828L316.384 127.638V166.855L286.354 184.045V184.03Z" fill="#0B5025"/>
<path id="Vector_30" d="M122.688 188.433V148.782L166.232 123.67V163.321L122.688 188.433Z" fill="#0B5025"/>
<g id="Group_11">
<path id="Vector_31" d="M115.181 71.995V104.878L104.67 110.568L115.181 71.995Z" fill="#0F6B31"/>
<path id="Vector_32" d="M114.43 72.4442L103.92 110.568L93.4092 72.4442H114.43Z" fill="#0F6B31"/>
<path id="Vector_33" d="M115.181 72.4442L104.67 78.4937V70.9168L115.181 64.8673V72.4442Z" fill="#0B5025"/>
<path id="Vector_34" d="M104.67 78.4937L94.1597 72.4442V64.8673L104.67 70.9168V78.4937Z" fill="#0B5025"/>
<path id="Vector_35" d="M115.136 64.493L104.055 70.8719L92.9585 64.493L104.055 58.0991L115.136 64.493Z" fill="#0B5025"/>
</g>
<path id="Vector_36" d="M191.413 195.89C184.446 197.702 175.287 197.297 169.296 194.692C166.758 193.584 165.151 192.236 164.431 190.814C163.605 189.526 163.109 187.998 163.109 186.351C163.109 181.784 166.818 178.086 171.398 178.086C172.389 178.086 173.335 178.265 174.206 178.58C174.671 173.728 178.785 169.925 183.77 169.925C188.755 169.925 192.584 173.474 193.26 178.101C196.878 178.22 199.896 180.646 200.902 183.941C200.902 183.941 203.845 191.502 193.62 195.126L191.398 195.89H191.413Z" fill="#0B5025"/>
</g>
<path id="Vector_37" d="M139.205 281.421L116.683 268.454V224.625C116.683 217.497 121.728 214.622 127.944 218.201C134.16 221.78 139.205 230.465 139.205 237.592V281.421Z" fill="#0B5025"/>
</g>
</g>
<g id="Group_12">
<g id="Group_13">
<path id="Vector_38" d="M102.043 145.892C101.908 145.892 101.788 145.862 101.668 145.787L25.5258 101.524C25.3005 101.404 25.1654 101.164 25.1504 100.91C25.1504 100.655 25.2555 100.416 25.4507 100.266L78.4091 61.6629C78.6043 61.5131 78.8595 61.4832 79.0998 61.5581C79.325 61.6329 79.5052 61.8276 79.5803 62.0672L102.764 144.933C102.839 145.233 102.749 145.547 102.493 145.727C102.358 145.832 102.193 145.877 102.028 145.877L102.043 145.892ZM27.2675 100.805L100.827 143.556L78.4241 63.5047L27.2675 100.79V100.805Z" fill="#0A431F"/>
<path id="Vector_39" d="M184.829 0.0793524L78.4727 61.6126L79.2261 62.9078L185.583 1.37457L184.829 0.0793524Z" fill="#0A431F"/>
<path id="Vector_40" d="M28.0933 167.828H26.5918V100.865C26.5918 100.595 26.7419 100.356 26.9672 100.221C27.2074 100.086 27.4927 100.086 27.7179 100.221L103.86 144.484L103.109 145.772L28.0933 102.168V167.828Z" fill="#0A431F"/>
<path id="Vector_41" d="M103.169 212.75H101.667V145.128C101.667 144.858 101.803 144.619 102.043 144.484L185.872 96.1031L186.623 97.4058L103.169 145.562V212.765V212.75Z" fill="#0A431F"/>
<path id="Vector_42" d="M263.831 205.263H262.33V141.369L187.254 97.7352V166.331H185.752V96.4325C185.752 96.163 185.903 95.9234 186.128 95.7886C186.368 95.6538 186.653 95.6538 186.879 95.7886L263.456 140.306C263.681 140.441 263.831 140.681 263.831 140.95V205.263Z" fill="#0A431F"/>
<g id="Group_14">
<g id="Group_15">
<path id="Vector_43" d="M159.787 184.669L107.224 214.958L107.975 216.254L160.538 185.966L159.787 184.669Z" fill="#0A431F"/>
<path id="Vector_44" d="M162.267 192.108L128.178 211.751L128.929 213.048L163.018 193.405L162.267 192.108Z" fill="#0A431F"/>
</g>
<path id="Vector_45" d="M201.203 178.487L200.447 179.78L255.046 211.521L255.802 210.228L201.203 178.487Z" fill="#0A431F"/>
<path id="Vector_46" d="M205.575 191.469L204.818 192.763L245.239 216.261L245.995 214.967L205.575 191.469Z" fill="#0A431F"/>
</g>
<path id="Vector_47" d="M261.999 141.923C261.834 141.923 261.669 141.864 261.549 141.774C261.308 141.594 261.203 141.28 261.278 140.98L284.221 57.9194C284.281 57.6798 284.462 57.4851 284.702 57.4103C284.927 57.3354 285.197 57.3653 285.393 57.5151L338.591 96.3277C338.801 96.4774 338.907 96.717 338.892 96.9716C338.892 97.2261 338.741 97.4507 338.516 97.5855L262.374 141.849C262.254 141.923 262.119 141.953 261.999 141.953V141.923ZM285.393 59.3419L263.23 139.588L336.789 96.8218L285.393 59.3269V59.3419Z" fill="#0A431F"/>
<path id="Vector_48" d="M186.353 88.4663L185.752 0.748699C185.752 0.479168 185.888 0.22461 186.128 0.089844C186.368 -0.0449219 186.653 -0.0449219 186.879 0.089844L282.225 54.9246L281.474 56.2273L187.269 2.05144L187.855 88.4663H186.353Z" fill="#0A431F"/>
<path id="Vector_49" d="M236.804 194.782H235.302V142.867L212.779 129.765V181.305H211.278V128.462C211.278 128.192 211.428 127.953 211.653 127.818C211.893 127.683 212.179 127.683 212.404 127.818L236.428 141.789C236.653 141.923 236.804 142.163 236.804 142.433V194.782Z" fill="#0A431F"/>
<g id="Group_16">
<path id="Vector_50" d="M78.3938 188.807C78.2587 188.807 78.1386 188.777 78.0184 188.702L47.9882 171.512C47.7479 171.377 47.6128 171.138 47.6128 170.868V131.651C47.6128 131.382 47.7479 131.142 47.9882 131.007C48.2284 130.873 48.4987 130.873 48.7389 131.007L78.7692 148.198C79.0094 148.332 79.1446 148.572 79.1446 148.841V188.043C79.1446 188.313 79.0094 188.552 78.7692 188.687C78.6491 188.747 78.529 188.792 78.3938 188.792V188.807ZM49.1143 170.434L77.6431 186.756V149.276L49.1143 132.954V170.434Z" fill="#0A431F"/>
<path id="Vector_51" d="M65.6309 142.373H64.1294V173.818H65.6309V142.373Z" fill="#0A431F"/>
<path id="Vector_52" d="M53.9637 147.954L53.2163 149.253L77.9081 163.384L78.6555 162.085L53.9637 147.954Z" fill="#0A431F"/>
</g>
<g id="Group_17">
<path id="Vector_53" d="M285.603 184.779C285.468 184.779 285.348 184.749 285.227 184.674C285.002 184.539 284.852 184.3 284.852 184.03V144.828C284.852 144.559 285.002 144.319 285.227 144.185L315.258 126.994C315.498 126.86 315.783 126.86 316.008 126.994C316.234 127.129 316.384 127.369 316.384 127.638V166.855C316.384 167.125 316.234 167.364 316.008 167.499L285.978 184.689C285.858 184.749 285.738 184.794 285.603 184.794V184.779ZM286.354 145.248V182.728L314.882 166.406V128.926L286.354 145.248Z" fill="#0A431F"/>
<path id="Vector_54" d="M299.867 137.881H298.366V169.326H299.867V137.881Z" fill="#0A431F"/>
<path id="Vector_55" d="M309.667 144.151L285.383 158.059L286.131 159.358L310.414 145.45L309.667 144.151Z" fill="#0A431F"/>
</g>
<g id="Group_18">
<path id="Vector_56" d="M121.938 189.181C121.803 189.181 121.683 189.151 121.562 189.077C121.337 188.942 121.187 188.702 121.187 188.433V148.782C121.187 148.512 121.322 148.272 121.562 148.138L165.106 123.026C165.332 122.892 165.617 122.892 165.857 123.026C166.082 123.161 166.232 123.401 166.232 123.67V163.321C166.232 163.591 166.097 163.83 165.857 163.965L122.313 189.077C122.193 189.136 122.073 189.181 121.938 189.181ZM122.689 149.216V187.13L164.731 162.887V124.973L122.689 149.231V149.216Z" fill="#0A431F"/>
<path id="Vector_57" d="M136.202 142.373H134.701V175.315H136.202V142.373Z" fill="#0A431F"/>
<path id="Vector_58" d="M149.716 133.388H148.214V167.828H149.716V133.388Z" fill="#0A431F"/>
<path id="Vector_59" d="M159.296 140.842L122.425 162.088L123.177 163.384L160.047 142.138L159.296 140.842Z" fill="#0A431F"/>
</g>
<g id="Group_19">
<path id="Vector_60" d="M104.941 111.212L104.19 109.909L113.68 104.444V73.4774H115.181V104.878C115.181 105.147 115.031 105.387 114.806 105.522L104.941 111.197V111.212Z" fill="#0A431F"/>
<path id="Vector_61" d="M103.92 111.317C103.589 111.317 103.289 111.092 103.199 110.778L93.334 76.0978L94.7754 75.6935L103.169 105.192V82.4767H104.67V110.568C104.67 110.942 104.4 111.257 104.025 111.317C103.995 111.317 103.95 111.317 103.92 111.317Z" fill="#0A431F"/>
<path id="Vector_62" d="M103.92 79.2423C103.785 79.2423 103.664 79.2124 103.544 79.1375C103.319 79.0028 103.169 78.7632 103.169 78.4936V70.9168C103.169 70.6473 103.319 70.4077 103.544 70.2729L114.055 64.2234C114.28 64.0887 114.58 64.0887 114.806 64.2234C115.031 64.3582 115.181 64.5978 115.181 64.8673V72.4442C115.181 72.7137 115.031 72.9533 114.806 73.088L104.295 79.1375C104.175 79.1974 104.055 79.2423 103.92 79.2423ZM104.67 71.3511V77.2059L113.68 72.0249V66.1701L104.67 71.3511Z" fill="#0A431F"/>
<path id="Vector_63" d="M103.92 79.2423C103.785 79.2423 103.665 79.2124 103.545 79.1375L93.0341 73.088C92.8088 72.9533 92.6587 72.7137 92.6587 72.4442V64.8673C92.6587 64.5978 92.8088 64.3582 93.0341 64.2234C93.2593 64.0887 93.5596 64.0887 93.7848 64.2234L104.295 70.2729C104.521 70.4077 104.671 70.6473 104.671 70.9168V78.4936C104.671 78.7632 104.521 79.0028 104.295 79.1375C104.175 79.1974 104.055 79.2423 103.92 79.2423ZM94.1602 72.0099L103.169 77.1909V71.3361L94.1602 66.1551V72.0099Z" fill="#0A431F"/>
<path id="Vector_64" d="M104.055 71.6206C103.92 71.6206 103.8 71.5906 103.68 71.5158L92.5834 65.1369C92.3582 65.0021 92.208 64.7625 92.208 64.493C92.208 64.2234 92.3582 63.9839 92.5834 63.8491L103.68 57.4702C103.905 57.3354 104.205 57.3354 104.43 57.4702L115.527 63.8491C115.752 63.9839 115.902 64.2234 115.902 64.493C115.902 64.7625 115.752 65.0021 115.527 65.1369L104.43 71.5158C104.31 71.5757 104.19 71.6206 104.055 71.6206ZM94.4603 64.493L104.055 70.0184L113.65 64.493L104.055 58.9676L94.4603 64.493Z" fill="#0A431F"/>
</g>
</g>
<g id="Group_20">
<g id="Group_21">
<path id="Vector_65" d="M152.067 267.425L151.317 268.722L177.839 283.974L178.589 282.677L152.067 267.425Z" fill="#0A431F"/>
<path id="Vector_66" d="M139.956 282.17C139.821 282.17 139.701 282.14 139.581 282.065L117.058 269.098C116.833 268.963 116.683 268.723 116.683 268.454V224.625C116.683 220.911 117.974 218.111 120.331 216.763C122.704 215.401 125.812 215.685 129.07 217.557C135.482 221.256 140.707 230.24 140.707 237.592V281.421C140.707 281.691 140.557 281.93 140.331 282.065C140.211 282.125 140.091 282.17 139.956 282.17ZM118.184 268.034L139.205 280.133V237.592C139.205 230.719 134.325 222.304 128.319 218.845C125.542 217.243 122.974 216.958 121.082 218.051C119.205 219.129 118.184 221.465 118.184 224.625V268.034Z" fill="#0A431F"/>
<path id="Vector_67" d="M156.473 292.966C156.338 292.966 156.218 292.936 156.097 292.861L145.587 286.812C145.362 286.677 145.211 286.437 145.211 286.168V274.129H146.713V285.734L155.722 290.915V253.749C155.722 250.29 152.914 246.008 149.956 244.93C149.145 244.63 148.35 244.705 147.749 245.124C147.088 245.588 146.713 246.397 146.713 247.37V259.155H145.211V247.37C145.211 245.903 145.827 244.63 146.878 243.896C147.884 243.193 149.19 243.058 150.452 243.522C154.055 244.825 157.209 249.601 157.209 253.749V292.202C157.209 292.472 157.058 292.712 156.833 292.846C156.713 292.906 156.593 292.951 156.458 292.951L156.473 292.966Z" fill="#0A431F"/>
<path id="Vector_68" d="M171.488 301.486C171.353 301.486 171.233 301.456 171.113 301.381L160.602 295.332C160.377 295.197 160.227 294.958 160.227 294.688V255.905C160.227 254.438 160.842 253.165 161.893 252.432C162.899 251.728 164.206 251.593 165.467 252.057C169.07 253.36 172.224 258.137 172.224 262.284V300.753C172.224 301.022 172.074 301.262 171.848 301.396C171.728 301.456 171.608 301.501 171.473 301.501L171.488 301.486ZM161.728 294.254L170.737 299.435V262.269C170.737 258.81 167.929 254.528 164.971 253.45C164.161 253.15 163.38 253.225 162.764 253.644C162.103 254.109 161.728 254.917 161.728 255.891V294.239V294.254Z" fill="#0A431F"/>
</g>
<g id="Group_22">
<path id="Vector_69" d="M345.574 185.712L178.37 282.449L179.123 283.744L346.327 187.007L345.574 185.712Z" fill="#0A431F"/>
<path id="Vector_70" d="M237.554 267.301C237.419 267.301 237.299 267.271 237.179 267.196C236.954 267.061 236.804 266.821 236.804 266.552V231.483C236.804 228.174 238.095 225.074 240.362 222.963C242.314 221.136 244.371 220.477 245.978 221.181C247.314 221.765 248.095 223.202 248.095 225.119H246.594C246.594 223.816 246.158 222.888 245.377 222.543C244.371 222.109 242.87 222.663 241.383 224.056C239.416 225.883 238.305 228.593 238.305 231.483V265.249L246.969 260.263L247.72 261.566L237.93 267.196C237.81 267.256 237.69 267.301 237.554 267.301Z" fill="#0A431F"/>
<path id="Vector_71" d="M222.539 277.423C222.404 277.423 222.284 277.393 222.164 277.318C221.939 277.184 221.789 276.944 221.789 276.674V238.206C221.789 234.058 224.942 229.282 228.545 227.979C229.807 227.515 231.113 227.65 232.119 228.353C233.185 229.102 233.786 230.36 233.786 231.827V270.61C233.786 270.879 233.636 271.119 233.41 271.254L222.9 277.303C222.78 277.363 222.659 277.408 222.524 277.408L222.539 277.423ZM230.032 229.207C229.717 229.207 229.386 229.267 229.056 229.387C226.083 230.465 223.29 234.747 223.29 238.206V275.372L232.299 270.191V231.842C232.299 230.869 231.924 230.045 231.263 229.596C230.903 229.342 230.482 229.222 230.032 229.222V229.207Z" fill="#0A431F"/>
<path id="Vector_72" d="M207.524 286.018C207.389 286.018 207.269 285.988 207.149 285.913C206.924 285.779 206.773 285.539 206.773 285.269V246.816C206.773 242.668 209.927 237.892 213.53 236.589C214.807 236.125 216.113 236.26 217.104 236.963C218.17 237.712 218.771 238.97 218.771 240.437V279.22C218.771 279.49 218.62 279.729 218.395 279.864L207.885 285.913C207.764 285.973 207.644 286.018 207.509 286.018H207.524ZM215.017 237.802C214.701 237.802 214.371 237.862 214.041 237.982C211.068 239.06 208.275 243.342 208.275 246.801V283.967L217.284 278.786V240.437C217.284 239.464 216.909 238.641 216.248 238.191C215.888 237.937 215.467 237.817 215.017 237.817V237.802Z" fill="#0A431F"/>
<path id="Vector_73" d="M192.509 294.538C192.374 294.538 192.254 294.508 192.134 294.434C191.908 294.299 191.758 294.059 191.758 293.79V280.133H193.26V292.487L202.269 287.306V248.958C202.269 247.984 201.894 247.161 201.233 246.711C200.632 246.292 199.836 246.217 199.026 246.517C196.053 247.595 193.26 251.878 193.26 255.336V268.154H191.758V255.336C191.758 251.189 194.911 246.412 198.515 245.109C199.791 244.645 201.098 244.78 202.089 245.484C203.155 246.232 203.755 247.49 203.755 248.958V287.74C203.755 288.01 203.605 288.249 203.38 288.384L192.869 294.434C192.749 294.493 192.629 294.538 192.494 294.538H192.509Z" fill="#0A431F"/>
<path id="Vector_74" d="M177.494 303.044C177.359 303.044 177.239 303.014 177.119 302.939C176.893 302.804 176.743 302.564 176.743 302.295V263.827C176.743 259.679 179.896 254.902 183.5 253.599C184.776 253.135 186.083 253.27 187.074 253.974C188.14 254.723 188.74 255.98 188.74 257.448V296.23C188.74 296.5 188.59 296.74 188.365 296.874L177.854 302.924C177.734 302.984 177.614 303.029 177.479 303.029L177.494 303.044ZM184.986 254.827C184.671 254.827 184.341 254.887 184.01 255.007C181.037 256.085 178.245 260.368 178.245 263.827V300.992L187.254 295.811V257.463C187.254 256.489 186.878 255.666 186.218 255.217C185.857 254.962 185.437 254.842 184.986 254.842V254.827Z" fill="#0A431F"/>
</g>
<g id="Group_23">
<path id="Vector_75" d="M18.9544 191.163L18.2036 192.46L106.939 243.551L107.69 242.254L18.9544 191.163Z" fill="#0A431F"/>
<path id="Vector_76" d="M24.3395 216.209C24.2043 216.209 24.0842 216.18 23.9641 216.105L13.4535 210.055C13.2283 209.92 13.0781 209.681 13.0781 209.411V170.629C13.0781 169.161 13.6937 167.888 14.7448 167.155C15.7508 166.451 17.0571 166.316 18.3184 166.78C21.922 168.083 25.0752 172.86 25.0752 177.008V215.476C25.0752 215.745 24.9251 215.985 24.6998 216.12C24.5797 216.18 24.4596 216.224 24.3245 216.224L24.3395 216.209ZM14.5796 208.977L23.5887 214.158V176.993C23.5887 173.534 20.7809 169.251 17.8229 168.173C17.0121 167.873 16.2163 167.948 15.6157 168.368C14.955 168.832 14.5796 169.64 14.5796 170.614V208.962V208.977Z" fill="#0A431F"/>
<path id="Vector_77" d="M39.3546 224.82C39.2195 224.82 39.0994 224.79 38.9792 224.715L28.4686 218.665C28.2434 218.53 28.0933 218.291 28.0933 218.021V179.239C28.0933 177.771 28.7089 176.498 29.7599 175.765C30.766 175.061 32.0723 174.926 33.3335 175.39C36.9372 176.693 40.0904 181.47 40.0904 185.618V224.086C40.0904 224.355 39.9402 224.595 39.715 224.73C39.5949 224.79 39.4747 224.834 39.3396 224.834L39.3546 224.82ZM29.5948 217.587L38.6039 222.768V185.603C38.6039 182.144 35.796 177.861 32.838 176.783C32.0272 176.483 31.2314 176.558 30.6308 176.978C29.9702 177.442 29.5948 178.25 29.5948 179.224V217.572V217.587Z" fill="#0A431F"/>
<path id="Vector_78" d="M52.8683 231.633C52.7331 231.633 52.613 231.603 52.4929 231.528L42.703 225.898L43.4538 224.595L52.1175 229.581V195.815C52.1175 192.925 50.9914 190.215 49.0394 188.388C47.5529 186.995 46.0664 186.441 45.0454 186.875C44.2796 187.205 43.8292 188.148 43.8292 189.436H42.3276C42.3276 187.519 43.0934 186.082 44.4448 185.498C46.0514 184.809 48.0934 185.453 50.0604 187.28C52.3277 189.391 53.619 192.491 53.619 195.8V230.869C53.619 231.139 53.4689 231.378 53.2436 231.513C53.1235 231.573 53.0034 231.618 52.8683 231.618V231.633Z" fill="#0A431F"/>
<path id="Vector_79" d="M67.8834 241.845C67.7483 241.845 67.6282 241.815 67.508 241.74L56.9974 235.691C56.7722 235.556 56.6221 235.316 56.6221 235.047V196.264C56.6221 194.797 57.2377 193.539 58.2888 192.79C59.2948 192.086 60.6011 191.952 61.8624 192.416C65.466 193.719 68.6192 198.495 68.6192 202.643V241.096C68.6192 241.366 68.469 241.605 68.2438 241.74C68.1237 241.8 68.0035 241.845 67.8684 241.845H67.8834ZM58.1236 234.612L67.1327 239.793V202.628C67.1327 199.169 64.3248 194.886 61.3669 193.808C60.541 193.509 59.7602 193.584 59.1596 194.003C58.499 194.467 58.1236 195.276 58.1236 196.249V234.598V234.612Z" fill="#0A431F"/>
<path id="Vector_80" d="M82.8986 250.35C82.7634 250.35 82.6433 250.32 82.5232 250.245L72.0126 244.196C71.7874 244.061 71.6372 243.821 71.6372 243.552V204.769C71.6372 203.302 72.2528 202.029 73.3039 201.295C74.3099 200.592 75.6162 200.457 76.8775 200.921C80.4811 202.224 83.6343 207 83.6343 211.148V249.616C83.6343 249.886 83.4842 250.126 83.2589 250.26C83.1388 250.32 83.0187 250.365 82.8835 250.365L82.8986 250.35ZM73.1387 243.118L82.1478 248.299V211.133C82.1478 207.674 79.34 203.392 76.382 202.314C75.5712 202.014 74.7904 202.089 74.1748 202.508C73.5141 202.972 73.1387 203.781 73.1387 204.754V243.103V243.118Z" fill="#0A431F"/>
<path id="Vector_81" d="M96.8176 257.073L87.0277 251.443C86.8025 251.308 86.6523 251.069 86.6523 250.799V215.071C86.6523 213.409 87.328 212.047 88.4842 211.343C89.5953 210.669 91.0218 210.699 92.4031 211.418C95.4512 213.005 97.9437 217.138 97.9437 220.642H96.4422C96.4422 217.692 94.28 214.083 91.7124 212.75C90.8115 212.271 89.9407 212.241 89.28 212.631C88.5743 213.065 88.1689 213.948 88.1689 215.071V250.38L97.5834 255.801L96.8326 257.103L96.8176 257.073Z" fill="#0A431F"/>
<path id="Vector_82" d="M112.929 267.406C112.794 267.406 112.674 267.376 112.553 267.301L102.043 261.251C101.818 261.116 101.667 260.877 101.667 260.607V221.825C101.667 220.357 102.283 219.084 103.334 218.351C104.34 217.647 105.646 217.512 106.908 217.976C110.511 219.279 113.665 224.056 113.665 228.204V266.657C113.665 266.926 113.514 267.166 113.289 267.301C113.169 267.361 113.049 267.406 112.914 267.406H112.929ZM103.169 260.173L112.178 265.354V228.189C112.178 224.73 109.37 220.447 106.412 219.369C105.601 219.069 104.806 219.144 104.205 219.564C103.544 220.028 103.169 220.836 103.169 221.81V260.158V260.173Z" fill="#0A431F"/>
</g>
<g id="Group_24">
<path id="Vector_83" d="M296.114 234.837C295.978 234.837 295.858 234.807 295.738 234.732C295.513 234.597 295.363 234.358 295.363 234.088V195.635C295.363 191.487 298.516 186.711 302.12 185.408C303.396 184.944 304.702 185.079 305.693 185.782C306.759 186.531 307.36 187.789 307.36 189.256V228.039C307.36 228.308 307.21 228.548 306.984 228.683L296.474 234.732C296.354 234.792 296.234 234.837 296.099 234.837H296.114ZM303.606 186.621C303.291 186.621 302.96 186.681 302.63 186.801C299.657 187.879 296.864 192.161 296.864 195.62V232.786L305.873 227.605V189.256C305.873 188.283 305.498 187.459 304.837 187.01C304.477 186.756 304.057 186.636 303.606 186.636V186.621Z" fill="#0A431F"/>
<path id="Vector_84" d="M281.098 243.342C280.963 243.342 280.843 243.312 280.723 243.237C280.498 243.103 280.348 242.863 280.348 242.594V204.125C280.348 199.978 283.501 195.201 287.104 193.898C288.381 193.434 289.687 193.569 290.678 194.273C291.744 195.021 292.345 196.279 292.345 197.747V236.529C292.345 236.799 292.195 237.038 291.969 237.173L281.459 243.223C281.339 243.282 281.219 243.327 281.083 243.327L281.098 243.342ZM288.591 195.126C288.276 195.126 287.945 195.186 287.615 195.306C284.642 196.384 281.849 200.666 281.849 204.125V241.291L290.858 236.11V197.761C290.858 196.788 290.483 195.965 289.822 195.515C289.462 195.261 289.041 195.141 288.591 195.141V195.126Z" fill="#0A431F"/>
<path id="Vector_85" d="M266.083 251.878C265.948 251.878 265.828 251.848 265.708 251.773C265.483 251.638 265.333 251.398 265.333 251.129V212.661C265.333 208.513 268.486 203.736 272.089 202.433C273.366 201.969 274.672 202.104 275.663 202.808C276.729 203.556 277.33 204.814 277.33 206.282V245.064C277.33 245.334 277.179 245.573 276.954 245.708L266.444 251.758C266.324 251.818 266.203 251.863 266.068 251.863L266.083 251.878ZM273.576 203.661C273.26 203.661 272.93 203.721 272.6 203.841C269.627 204.919 266.834 209.202 266.834 212.661V249.826L275.843 244.645V206.297C275.843 205.323 275.468 204.5 274.807 204.051C274.447 203.796 274.026 203.676 273.576 203.676V203.661Z" fill="#0A431F"/>
<path id="Vector_86" d="M252.57 260.398C252.434 260.398 252.314 260.368 252.194 260.293C251.969 260.158 251.819 259.919 251.819 259.649V221.181C251.819 217.033 254.972 212.256 258.576 210.954C259.852 210.489 261.158 210.624 262.149 211.328C263.215 212.077 263.816 213.334 263.816 214.802V253.585C263.816 253.854 263.666 254.094 263.441 254.228L252.93 260.278C252.81 260.338 252.69 260.383 252.555 260.383L252.57 260.398ZM260.062 212.196C259.747 212.196 259.417 212.256 259.086 212.376C256.113 213.454 253.32 217.737 253.32 221.196V258.361L262.329 253.18V214.832C262.329 213.859 261.954 213.035 261.293 212.586C260.933 212.331 260.513 212.211 260.062 212.211V212.196Z" fill="#0A431F"/>
</g>
</g>
</g>
</g>
</g>
<defs>
<clipPath id="clip0_574_1447">
<rect width="308" height="308" fill="white"/>
</clipPath>
</defs>
</svg>
