<svg width="142" height="48" viewBox="0 0 142 48" fill="none" xmlns="http://www.w3.org/2000/svg">
<path d="M63.7428 17.6478V18.7498C63.7428 21.9142 61.838 23.9135 58.2801 23.9135H56.1076V28.353C56.1076 28.4002 56.1076 28.4474 56.0918 28.4789C56.0918 28.5262 56.0446 28.5576 56.0131 28.5891C55.9816 28.6206 55.9501 28.6521 55.9029 28.6521C55.8557 28.6521 55.8084 28.6678 55.777 28.6521H52.8645C52.8173 28.6521 52.7858 28.6206 52.7386 28.5891C52.7071 28.5576 52.6756 28.5262 52.6599 28.4789C52.6441 28.4317 52.6284 28.3845 52.6441 28.3372V12.799C52.6441 12.7046 52.6756 12.6259 52.7386 12.5629C52.8016 12.4999 52.8803 12.4684 52.9747 12.4684H58.2643C61.8222 12.4684 63.7271 14.578 63.7271 17.6321L63.7428 17.6478ZM56.1076 15.5855V20.8122H58.0124C59.7127 20.8122 60.2952 20.0408 60.2952 18.5294V17.884C60.2952 16.4199 59.7284 15.5855 58.0124 15.5855H56.1076Z" fill="white"/>
<path d="M72.858 16.6402V19.0017C72.858 19.285 72.7478 19.3952 72.4644 19.3952H72.1023C70.3391 19.3952 69.2843 20.1981 68.938 21.5205V28.4631C68.938 28.4946 68.9065 28.5418 68.875 28.5733C68.8435 28.6048 68.8121 28.6363 68.7806 28.652C68.7491 28.6678 68.7019 28.6835 68.6704 28.6835H65.8839C65.8367 28.6835 65.8052 28.6835 65.7737 28.652C65.7422 28.6363 65.7107 28.6048 65.6792 28.5733C65.6477 28.5418 65.632 28.5104 65.6162 28.4631C65.6162 28.4316 65.6005 28.3844 65.6162 28.3372V16.7189C65.6162 16.6717 65.6163 16.6245 65.632 16.593C65.6477 16.5458 65.6792 16.5143 65.7107 16.4828C65.7422 16.4513 65.7737 16.4356 65.8209 16.4198C65.8681 16.4198 65.8996 16.4041 65.9469 16.4198H68.4657C68.7333 16.4198 68.7963 16.593 68.7963 16.7662V18.4034C69.3788 17.3172 70.4493 16.2624 72.3542 16.2624C74.2591 16.2624 72.8895 16.3411 72.8895 16.6402H72.858Z" fill="white"/>
<path d="M84.5235 21.2215V23.882C84.5235 26.8417 82.839 28.9512 79.1236 28.9512C75.4083 28.9512 73.7238 26.8574 73.7238 23.9765V21.3159C73.7238 18.3563 75.4083 16.1523 79.1236 16.1523C82.839 16.1523 84.5235 18.3405 84.5235 21.2215ZM77.0771 23.7875C77.0771 25.1572 77.691 26.0073 79.1079 26.0073C80.5248 26.0073 81.1702 25.1729 81.1702 23.7875V21.3789C81.1702 20.025 80.5562 19.0962 79.1079 19.0962C77.6596 19.0962 77.0771 20.025 77.0771 21.3789V23.7875Z" fill="white"/>
<path d="M86.3024 24.1968V21.001C86.3024 18.1831 87.9554 16.1995 90.4585 16.1995C92.9616 16.1995 93.3709 17.1125 93.8275 17.9312V12.0906C93.8275 12.0433 93.8275 12.0119 93.8589 11.9646C93.8589 11.9331 93.9062 11.8859 93.9377 11.8544C93.9691 11.8229 94.0006 11.8072 94.0479 11.7915C94.0951 11.7915 94.1266 11.7915 94.1738 11.7915H96.8658C96.9131 11.7915 96.9445 11.7915 96.9918 11.7915C97.039 11.7915 97.0705 11.8229 97.102 11.8544C97.1335 11.8859 97.1649 11.9174 97.1807 11.9646C97.1964 12.0119 97.2122 12.0433 97.2122 12.0906V28.3687C97.2122 28.4159 97.2122 28.4631 97.2122 28.4946C97.2122 28.5419 97.1649 28.5733 97.1335 28.6048C97.102 28.6363 97.0705 28.6521 97.0233 28.6678C96.976 28.6678 96.9445 28.6835 96.8973 28.6678H94.3155C94.2682 28.6678 94.2368 28.6678 94.1895 28.6521C94.1423 28.6521 94.1108 28.6206 94.0793 28.5891C94.0478 28.5576 94.0321 28.5261 94.0164 28.4789C94.0164 28.4317 94.0164 28.4002 94.0164 28.3529V27.2195C93.5283 28.0223 92.3161 28.9197 90.6474 28.9197C88.0183 28.9197 86.3653 27.0148 86.3653 24.1653L86.3339 24.1968H86.3024ZM93.8275 23.6773V21.5363C93.8275 20.025 92.9144 19.1276 91.7022 19.1276C90.49 19.1276 89.6399 20.0722 89.6399 21.5363V23.7088C89.6399 25.1729 90.2853 26.0073 91.7022 26.0073C93.119 26.0073 93.8275 25.1729 93.8275 23.6773Z" fill="white"/>
<path d="M99.6366 24.6534V16.7505C99.6366 16.7033 99.6366 16.6561 99.6366 16.6088C99.6366 16.5616 99.6838 16.5301 99.7153 16.4986C99.7468 16.4672 99.794 16.4357 99.8255 16.4357C99.8727 16.4357 99.9199 16.4199 99.9672 16.4357H102.769C102.817 16.4357 102.848 16.4672 102.88 16.4986C102.911 16.5301 102.943 16.5616 102.958 16.6088C102.974 16.6561 102.99 16.7033 102.958 16.7505V24.1024C102.958 25.2044 103.494 25.8971 104.533 25.8971C105.572 25.8971 106.375 25.1257 106.721 23.9765V16.7505C106.721 16.7033 106.721 16.6561 106.721 16.6246C106.721 16.5774 106.768 16.5459 106.8 16.5144C106.831 16.4829 106.863 16.4514 106.91 16.4357C106.957 16.4357 106.988 16.4199 107.036 16.4199H109.838C109.885 16.4199 109.917 16.4514 109.948 16.4986C109.98 16.5301 110.011 16.5616 110.027 16.6088C110.027 16.6561 110.027 16.7033 110.027 16.7348V28.479C110.027 28.5262 109.995 28.5577 109.964 28.5892C109.932 28.6206 109.901 28.6364 109.854 28.6521C109.806 28.6521 109.775 28.6679 109.728 28.6521H107.114C107.067 28.6521 107.036 28.6521 106.988 28.6364C106.941 28.6364 106.91 28.6049 106.878 28.5734C106.847 28.5419 106.815 28.5104 106.8 28.4632C106.784 28.416 106.768 28.3845 106.768 28.3373V26.9519C106.044 27.9909 104.816 28.9198 103.163 28.9198C101.51 28.9198 99.5579 27.188 99.5579 24.622V24.6534H99.6366Z" fill="white"/>
<path d="M116.718 13.8379V16.53H119.142C119.189 16.53 119.236 16.5772 119.268 16.6087C119.299 16.6402 119.331 16.6874 119.347 16.7346C119.347 16.7818 119.347 16.8291 119.347 16.8763V19.0016C119.347 19.0488 119.299 19.096 119.268 19.1275C119.236 19.159 119.189 19.1905 119.142 19.2062C119.095 19.2062 119.048 19.222 119 19.2062H116.718V24.6218C116.718 25.3302 117.095 25.7238 118.008 25.7238H119.142C119.189 25.7238 119.221 25.7553 119.268 25.7868C119.299 25.8182 119.331 25.8497 119.347 25.897C119.362 25.9442 119.378 25.9914 119.347 26.0386V28.2899C119.347 28.3371 119.347 28.3843 119.347 28.4316C119.347 28.4788 119.299 28.5103 119.268 28.5418C119.236 28.5732 119.189 28.6047 119.142 28.6047C119.095 28.6047 119.048 28.6205 119 28.6047H117.473C114.734 28.6047 113.443 27.1406 113.443 25.0154V19.159H111.885C111.837 19.159 111.79 19.1118 111.759 19.0803C111.727 19.0488 111.696 19.0016 111.68 18.9544C111.664 18.9071 111.68 18.8599 111.68 18.8127V16.6874C111.68 16.6402 111.727 16.5929 111.759 16.5614C111.79 16.53 111.837 16.4985 111.885 16.4827C111.932 16.4827 111.979 16.467 112.026 16.4827H113.49V13.7907C113.49 13.7435 113.49 13.6962 113.49 13.6648C113.49 13.6175 113.522 13.586 113.569 13.5546C113.6 13.5231 113.632 13.4916 113.679 13.4916C113.726 13.4916 113.774 13.4758 113.805 13.4758H116.387C116.434 13.4758 116.466 13.4758 116.513 13.4916C116.56 13.5073 116.592 13.5388 116.623 13.5703C116.655 13.6018 116.67 13.6333 116.686 13.6805C116.686 13.7277 116.686 13.7592 116.686 13.8064V13.8379H116.718Z" fill="white"/>
<path d="M131.658 21.2215V23.882C131.658 26.8417 129.973 28.9512 126.258 28.9512C122.542 28.9512 120.858 26.8574 120.858 23.9765V21.3159C120.858 18.3563 122.542 16.1523 126.258 16.1523C129.973 16.1523 131.658 18.3405 131.658 21.2215ZM124.211 21.3789V23.7875C124.211 25.1572 124.825 26.0073 126.242 26.0073C127.659 26.0073 128.289 25.1572 128.289 23.7875V21.3789C128.289 20.025 127.675 19.0962 126.226 19.0962C124.778 19.0962 124.195 20.025 124.195 21.3789H124.211Z" fill="white"/>
<path d="M141.056 16.6402V19.0017C141.056 19.285 140.946 19.3952 140.662 19.3952H140.316C138.553 19.3952 137.514 20.1981 137.152 21.5205V28.4631C137.152 28.4946 137.12 28.5418 137.089 28.5733C137.057 28.6048 137.026 28.6363 136.994 28.652C136.963 28.6678 136.916 28.6835 136.884 28.6835H134.098C134.05 28.6835 134.019 28.6835 133.988 28.652C133.956 28.6363 133.925 28.6048 133.893 28.5733C133.862 28.5418 133.846 28.5104 133.83 28.4631C133.83 28.4316 133.83 28.3844 133.83 28.3372V16.7189C133.83 16.6717 133.83 16.6245 133.83 16.593C133.83 16.5458 133.877 16.5143 133.909 16.4828C133.94 16.4513 133.972 16.4356 134.019 16.4198C134.066 16.4198 134.098 16.4041 134.145 16.4198H136.664C136.931 16.4198 136.994 16.593 136.994 16.7662V18.4034C137.577 17.3172 138.647 16.2624 140.552 16.2624C142.457 16.2624 141.088 16.3411 141.088 16.6402H141.04H141.056Z" fill="white"/>
<path d="M51.9357 42.8993V39.9081C51.9357 37.2791 53.4942 35.4057 55.8242 35.4057C58.1541 35.4057 58.5634 36.2558 58.9728 37.0272V31.5644C58.9728 31.5172 58.9728 31.4857 59.0042 31.4542C59.02 31.4227 59.0515 31.3912 59.0672 31.3598C59.0987 31.3283 59.1302 31.3125 59.1774 31.2968C59.2089 31.2968 59.2561 31.281 59.3034 31.2968H61.9639C61.9954 31.2968 62.0426 31.3283 62.0741 31.3598C62.1056 31.3912 62.1213 31.4227 62.1371 31.4542C62.1528 31.4857 62.1686 31.5329 62.1686 31.5644V46.8192C62.1686 46.8665 62.1686 46.898 62.1528 46.9452C62.1528 46.9767 62.1213 47.0239 62.0898 47.0396C62.0584 47.0711 62.0269 47.0869 61.9796 47.1026C61.9482 47.1026 61.9009 47.1184 61.8537 47.1026H59.4293C59.3978 47.1026 59.3506 47.1026 59.3191 47.0869C59.2876 47.0869 59.2561 47.0554 59.2246 47.0239C59.1932 46.9924 59.1774 46.9609 59.1617 46.9294C59.1617 46.898 59.1459 46.8507 59.1459 46.8192V45.7645C58.6894 46.5044 57.5559 47.3545 55.9974 47.3545C53.5257 47.3545 51.9829 45.5598 51.9829 42.8993H51.9357ZM58.9885 42.427V40.4119C58.9885 38.995 58.1384 38.1449 57.0049 38.1449C55.8714 38.1449 55.0843 39.0423 55.0843 40.4119V42.4427C55.0843 43.8124 55.6825 44.5995 57.0049 44.5995C58.3273 44.5995 58.9885 43.8124 58.9885 42.427Z" fill="white"/>
<path d="M75.2667 40.1286V42.616C75.2667 45.3867 73.6924 47.3703 70.2132 47.3703C66.734 47.3703 65.1598 45.4025 65.1598 42.7104V40.2231C65.1598 37.4523 66.734 35.39 70.2132 35.39C73.6924 35.39 75.2667 37.4366 75.2667 40.1286ZM68.3083 40.2703V42.5373C68.3083 43.8282 68.8908 44.6153 70.2132 44.6153C71.5356 44.6153 72.1339 43.8282 72.1339 42.5373V40.2703C72.1339 39.0109 71.5514 38.1293 70.2132 38.1293C68.8751 38.1293 68.3083 38.9951 68.3083 40.2703Z" fill="white"/>
<path d="M94.8192 35.8308V36.0354C94.8192 37.531 94.0321 38.6645 92.7254 39.184C94.284 39.4674 95.2915 40.8055 95.2915 42.6317V42.8678C95.2915 45.3867 93.7644 47.1184 90.4427 47.1184H84.4919C84.4447 47.1184 84.4132 47.0869 84.3817 47.0554C84.3502 47.0239 84.3187 46.9925 84.303 46.9452C84.303 46.898 84.303 46.8665 84.303 46.8193V32.2729C84.303 32.2257 84.303 32.1784 84.303 32.1469C84.303 32.0997 84.3502 32.0682 84.3817 32.0367C84.4132 32.0053 84.4447 31.9895 84.4919 31.9738C84.5391 31.9738 84.5706 31.958 84.6178 31.9738H90.3325C93.2921 31.9738 94.8192 33.4851 94.8192 35.878V35.8308ZM87.5145 34.7288V37.9246H89.8602C91.1511 37.9246 91.6706 37.2161 91.6706 36.3975V36.2558C91.6706 35.4214 91.1511 34.7445 89.8602 34.7445H87.5145V34.7288ZM87.5145 40.7425V44.3004H90.0649C91.2298 44.3004 92.0485 43.7809 92.0485 42.6632V42.4113C92.0485 41.3093 91.2613 40.7268 90.0649 40.7268H87.5145V40.7425Z" fill="white"/>
<path d="M100.943 42.3169V42.7577C100.943 43.9541 101.573 44.8042 103.037 44.8042C104.501 44.8042 104.863 44.269 105.241 43.5763C105.43 43.2614 105.509 43.23 105.839 43.3716L107.476 44.206C107.807 44.3634 107.823 44.5366 107.681 44.8515C106.973 46.4415 105.21 47.3546 103.021 47.3546C99.6995 47.3546 97.9678 45.3867 97.9678 42.6947V40.0499C97.9678 37.4366 99.6051 35.39 103.006 35.39C106.406 35.39 107.807 37.4366 107.807 39.9869V41.8131C107.807 42.128 107.697 42.3326 107.272 42.3326H100.943V42.3169ZM100.943 39.8925V40.286H104.942V39.8925C104.942 38.7747 104.312 37.9089 102.958 37.9089C101.604 37.9089 100.943 38.7747 100.943 39.8925Z" fill="white"/>
<path d="M116.954 35.3741C118.402 35.3741 119.362 36.2242 119.787 37.4522C120.638 36.2085 121.677 35.3741 123.125 35.3741C124.573 35.3741 126.273 36.9642 126.273 39.3571V46.8034C126.273 46.8507 126.273 46.8979 126.242 46.9294C126.211 46.9609 126.195 47.0081 126.163 47.0396C126.132 47.0711 126.085 47.0868 126.037 47.1026C125.99 47.1026 125.943 47.1183 125.896 47.1026H123.377C123.33 47.1026 123.298 47.0711 123.251 47.0396C123.219 47.0081 123.188 46.9766 123.172 46.9294C123.172 46.8822 123.141 46.8507 123.141 46.8034V39.9081C123.141 38.869 122.684 38.2551 121.881 38.2551C121.078 38.2551 120.417 38.9635 120.102 40.034V46.9294C120.102 46.9609 120.071 47.0081 120.039 47.0396C120.008 47.0711 119.976 47.0868 119.945 47.1026C119.913 47.1183 119.866 47.134 119.835 47.134H117.253C117.064 47.134 116.985 47.0081 116.985 46.8192V39.9238C116.985 38.8848 116.529 38.2708 115.726 38.2708C114.923 38.2708 114.23 39.0107 113.947 40.0812V46.9609C113.947 47.0081 113.915 47.0396 113.884 47.0711C113.852 47.1026 113.821 47.1183 113.774 47.134C113.726 47.134 113.695 47.1498 113.648 47.134H110.987C110.94 47.134 110.908 47.1026 110.877 47.0711C110.845 47.0396 110.83 47.0081 110.814 46.9609C110.814 46.9136 110.814 46.8822 110.814 46.8349V35.9566C110.814 35.9094 110.814 35.8779 110.845 35.8464C110.845 35.8149 110.893 35.7834 110.908 35.752C110.94 35.7205 110.971 35.7047 111.019 35.689C111.05 35.689 111.097 35.6732 111.145 35.689H113.695C113.726 35.689 113.774 35.7205 113.805 35.752C113.837 35.7834 113.852 35.8149 113.868 35.8464C113.868 35.8779 113.9 35.9251 113.868 35.9566V37.2633C114.545 36.3187 115.553 35.4214 117.001 35.4214L116.938 35.3741H116.954Z" fill="white"/>
<path d="M45.5756 33.0443C45.5756 35.0121 45.1978 36.9485 44.4421 38.7747C43.6865 40.5851 42.5845 42.2381 41.1991 43.6235C39.8137 45.0089 38.1607 46.1109 36.3503 46.8665C34.5399 47.6222 32.5878 48 30.6199 48H4.15616C4.69142 48 5.21093 47.8898 5.69896 47.7009C6.18699 47.4962 6.62779 47.1971 7.00562 46.8193C7.38344 46.4415 7.68256 46.0007 7.88722 45.5126C8.09187 45.0246 8.20207 44.5051 8.20207 43.9698V30.4625L11.6655 30.3995C16.1365 30.305 20.4343 28.6363 23.7718 25.6609C27.1092 22.6855 29.2818 18.6081 29.88 14.1843C29.88 14.4362 29.8957 14.6881 29.8957 14.94V18.1043H30.6199C34.5871 18.1043 38.3811 19.6786 41.1834 22.4808C43.9856 25.2831 45.5599 29.0928 45.5599 33.06" fill="#8AC548"/>
<path d="M30.3208 15.7586C30.3208 15.5382 30.3365 15.3178 30.3365 15.0974C30.3365 11.083 28.7465 7.24172 25.9128 4.42374C23.079 1.59003 19.2378 0 15.2233 0H14.9557C10.9885 0 7.17875 1.57429 4.37652 4.37652C1.57429 7.17874 0 10.9885 0 14.9557V19.2063L0.125943 30.6514V44.0013C0.125943 45.0561 0.582486 46.0636 1.33814 46.8035C2.0938 47.5434 3.10134 47.9528 4.17186 47.9528C5.24237 47.9528 6.24992 47.5434 7.00557 46.8035C7.76123 46.0636 8.20203 45.0561 8.21777 44.0013V30.4939L12.2165 30.4624C17.8839 30.8245 22.3706 29.2188 25.472 26.2276C28.2584 23.6615 29.9744 20.1351 30.2893 16.3568C30.305 16.2309 30.3208 16.1207 30.3522 15.9947C30.3522 15.916 30.3522 15.8531 30.3365 15.7743" fill="#008A3B"/>
<path d="M5.03767 25.2358C4.91173 25.2358 4.77005 25.1886 4.65985 25.1256C4.54965 25.0627 4.45519 24.9525 4.40796 24.8265C4.36073 24.7006 4.34499 24.5746 4.36073 24.433C4.39222 24.307 4.45519 24.1811 4.5339 24.0866L21.5677 6.59629C21.6306 6.53332 21.7094 6.48609 21.7881 6.45461C21.8668 6.42312 21.9612 6.40738 22.04 6.40738C22.1187 6.40738 22.2131 6.40738 22.2919 6.45461C22.3706 6.48609 22.4493 6.53332 22.5123 6.59629C22.5752 6.65926 22.6224 6.73798 22.6539 6.81669C22.6854 6.89541 22.7012 6.98986 22.7012 7.06858C22.7012 7.14729 22.7012 7.24175 22.6539 7.32046C22.6224 7.39918 22.5752 7.47789 22.5123 7.54086L5.47848 25.0312C5.4155 25.0942 5.33679 25.1414 5.25808 25.1886C5.17936 25.2201 5.0849 25.2358 4.99045 25.2358H5.03767Z" fill="#8AC548"/>
<path d="M21.2529 14.4677H21.1584C19.0489 14.1843 16.6874 13.9167 16.2466 13.901C16.1364 13.9167 16.0105 13.901 15.9003 13.8695C15.5697 13.7435 15.3335 11.697 15.1919 7.74552C15.1919 7.65106 15.1919 7.5566 15.2233 7.47789C15.2548 7.39918 15.3021 7.32046 15.365 7.24175C15.428 7.16303 15.5067 7.1158 15.5854 7.08432C15.6641 7.05283 15.7586 7.02135 15.8531 7.02135C15.9475 7.02135 16.0262 7.02135 16.1207 7.06858C16.1994 7.10006 16.2781 7.14729 16.3411 7.21026C16.4041 7.27323 16.4513 7.35195 16.4985 7.43066C16.53 7.50938 16.5458 7.60383 16.5458 7.69829C16.6087 9.57169 16.7032 11.634 16.7662 12.5786C17.5218 12.6258 18.8442 12.799 21.3473 13.1138C21.5205 13.1296 21.6779 13.224 21.7881 13.35C21.8983 13.4759 21.9613 13.6491 21.9456 13.8223C21.9456 13.9954 21.8511 14.1529 21.7252 14.2788C21.5992 14.389 21.426 14.4677 21.2529 14.4677Z" fill="#8AC548"/>
<path d="M8.70581 21.363C8.61136 21.363 8.5169 21.3473 8.43818 21.3158C8.35947 21.2843 8.28075 21.2213 8.21778 21.1583C8.15481 21.0954 8.10758 21.0167 8.0761 20.9222C8.04461 20.8435 8.02887 20.749 8.02887 20.6546L8.34373 12.9563C8.34373 12.7831 8.43818 12.61 8.56413 12.484C8.69007 12.3581 8.86324 12.2951 9.05216 12.3108C9.22533 12.3108 9.3985 12.3896 9.52444 12.5312C9.65038 12.6572 9.71336 12.8304 9.69761 13.0193L9.3985 20.0091L15.8373 19.9461C16.0105 19.9461 16.1837 20.0249 16.3096 20.1508C16.4356 20.2767 16.5143 20.4499 16.5143 20.6231C16.5143 20.7963 16.4356 20.9694 16.3096 21.0954C16.1837 21.2213 16.0105 21.3 15.8373 21.3L8.69007 21.3787L8.70581 21.363Z" fill="#8AC548"/>
<path d="M36.854 33.1231C36.854 34.0047 36.5864 34.8548 36.0984 35.5947C35.6103 36.3189 34.9176 36.9014 34.099 37.232C33.2804 37.5626 32.3988 37.657 31.5329 37.4838C30.6671 37.3107 29.8799 36.8856 29.2502 36.2716C28.6362 35.6577 28.2112 34.8548 28.038 33.9889C27.8648 33.1231 27.9593 32.2257 28.2899 31.4228C28.6205 30.62 29.203 29.9115 29.9272 29.4235C30.6513 28.9355 31.5172 28.6678 32.3988 28.6678C33.2804 28.6678 33.5638 28.778 34.099 28.9984C34.6343 29.2188 35.1223 29.5494 35.5474 29.9588C35.9567 30.3681 36.2873 30.8561 36.5077 31.4071C36.7281 31.9424 36.854 32.5248 36.854 33.1073" fill="#008A3B"/>
</svg>
