<svg width="143" height="48" viewBox="0 0 143 48" fill="none" xmlns="http://www.w3.org/2000/svg">
<path d="M64.3069 17.6478V18.7498C64.3069 21.9142 62.402 23.9135 58.8441 23.9135H56.6716V28.353C56.6716 28.4002 56.6716 28.4474 56.6558 28.4789C56.6558 28.5262 56.6086 28.5576 56.5771 28.5891C56.5456 28.6206 56.5142 28.6521 56.4669 28.6521C56.4197 28.6521 56.3725 28.6678 56.341 28.6521H53.4285C53.3813 28.6521 53.3498 28.6206 53.3026 28.5891C53.2711 28.5576 53.2396 28.5262 53.2239 28.4789C53.2082 28.4317 53.1924 28.3845 53.2082 28.3372V12.799C53.2082 12.7046 53.2396 12.6259 53.3026 12.5629C53.3656 12.4999 53.4443 12.4684 53.5388 12.4684H58.8284C62.3862 12.4684 64.2911 14.578 64.2911 17.6321L64.3069 17.6478ZM56.6716 15.5855V20.8122H58.5765C60.2767 20.8122 60.8592 20.0408 60.8592 18.5294V17.884C60.8592 16.4199 60.2924 15.5855 58.5765 15.5855H56.6716Z" fill="#8AC548"/>
<path d="M73.422 16.6402V19.0017C73.422 19.285 73.3118 19.3952 73.0284 19.3952H72.6663C70.9031 19.3952 69.8484 20.1981 69.502 21.5205V28.4631C69.502 28.4946 69.4705 28.5418 69.439 28.5733C69.4076 28.6048 69.3761 28.6363 69.3446 28.652C69.3131 28.6678 69.2659 28.6835 69.2344 28.6835H66.4479C66.4007 28.6835 66.3692 28.6835 66.3377 28.652C66.3062 28.6363 66.2747 28.6048 66.2433 28.5733C66.2118 28.5418 66.196 28.5104 66.1803 28.4631C66.1803 28.4316 66.1645 28.3844 66.1803 28.3372V16.7189C66.1803 16.6717 66.1803 16.6245 66.196 16.593C66.2118 16.5458 66.2432 16.5143 66.2747 16.4828C66.3062 16.4513 66.3377 16.4356 66.3849 16.4198C66.4322 16.4198 66.4636 16.4041 66.5109 16.4198H69.0297C69.2974 16.4198 69.3603 16.593 69.3603 16.7662V18.4034C69.9428 17.3172 71.0133 16.2624 72.9182 16.2624C74.8231 16.2624 73.4535 16.3411 73.4535 16.6402H73.422Z" fill="#8AC548"/>
<path d="M85.0875 21.2215V23.882C85.0875 26.8417 83.403 28.9512 79.6877 28.9512C75.9724 28.9512 74.2879 26.8574 74.2879 23.9765V21.3159C74.2879 18.3563 75.9724 16.1523 79.6877 16.1523C83.403 16.1523 85.0875 18.3405 85.0875 21.2215ZM77.6411 23.7875C77.6411 25.1572 78.2551 26.0073 79.6719 26.0073C81.0888 26.0073 81.7342 25.1729 81.7342 23.7875V21.3789C81.7342 20.025 81.1203 19.0962 79.6719 19.0962C78.2236 19.0962 77.6411 20.025 77.6411 21.3789V23.7875Z" fill="#8AC548"/>
<path d="M86.8664 24.1968V21.001C86.8664 18.1831 88.5194 16.1995 91.0225 16.1995C93.5256 16.1995 93.9349 17.1125 94.3915 17.9312V12.0906C94.3915 12.0433 94.3915 12.0119 94.423 11.9646C94.423 11.9331 94.4702 11.8859 94.5017 11.8544C94.5332 11.8229 94.5647 11.8072 94.6119 11.7915C94.6591 11.7915 94.6906 11.7915 94.7378 11.7915H97.4298C97.4771 11.7915 97.5086 11.7915 97.5558 11.7915C97.603 11.7915 97.6345 11.8229 97.666 11.8544C97.6975 11.8859 97.729 11.9174 97.7447 11.9646C97.7604 12.0119 97.7762 12.0433 97.7762 12.0906V28.3687C97.7762 28.4159 97.7762 28.4631 97.7762 28.4946C97.7762 28.5419 97.729 28.5733 97.6975 28.6048C97.666 28.6363 97.6345 28.6521 97.5873 28.6678C97.54 28.6678 97.5086 28.6835 97.4613 28.6678H94.8795C94.8323 28.6678 94.8008 28.6678 94.7536 28.6521C94.7063 28.6521 94.6748 28.6206 94.6434 28.5891C94.6119 28.5576 94.5961 28.5261 94.5804 28.4789C94.5804 28.4317 94.5804 28.4002 94.5804 28.3529V27.2195C94.0924 28.0223 92.8802 28.9197 91.2114 28.9197C88.5824 28.9197 86.9294 27.0148 86.9294 24.1653L86.8979 24.1968H86.8664ZM94.3915 23.6773V21.5363C94.3915 20.025 93.4784 19.1276 92.2662 19.1276C91.054 19.1276 90.2039 20.0722 90.2039 21.5363V23.7088C90.2039 25.1729 90.8493 26.0073 92.2662 26.0073C93.6831 26.0073 94.3915 25.1729 94.3915 23.6773Z" fill="#8AC548"/>
<path d="M100.201 24.6534V16.7505C100.201 16.7033 100.201 16.6561 100.201 16.6088C100.201 16.5616 100.248 16.5301 100.279 16.4986C100.311 16.4672 100.358 16.4357 100.39 16.4357C100.437 16.4357 100.484 16.4199 100.531 16.4357H103.333C103.381 16.4357 103.412 16.4672 103.444 16.4986C103.475 16.5301 103.507 16.5616 103.522 16.6088C103.538 16.6561 103.554 16.7033 103.522 16.7505V24.1024C103.522 25.2044 104.058 25.8971 105.097 25.8971C106.136 25.8971 106.939 25.1257 107.285 23.9765V16.7505C107.285 16.7033 107.285 16.6561 107.285 16.6246C107.285 16.5774 107.332 16.5459 107.364 16.5144C107.395 16.4829 107.427 16.4514 107.474 16.4357C107.521 16.4357 107.553 16.4199 107.6 16.4199H110.402C110.449 16.4199 110.481 16.4514 110.512 16.4986C110.544 16.5301 110.575 16.5616 110.591 16.6088C110.591 16.6561 110.591 16.7033 110.591 16.7348V28.479C110.591 28.5262 110.559 28.5577 110.528 28.5892C110.496 28.6206 110.465 28.6364 110.418 28.6521C110.37 28.6521 110.339 28.6679 110.292 28.6521H107.678C107.631 28.6521 107.6 28.6521 107.553 28.6364C107.505 28.6364 107.474 28.6049 107.442 28.5734C107.411 28.5419 107.379 28.5104 107.364 28.4632C107.348 28.416 107.332 28.3845 107.332 28.3373V26.9519C106.608 27.9909 105.38 28.9198 103.727 28.9198C102.074 28.9198 100.122 27.188 100.122 24.622V24.6534H100.201Z" fill="#8AC548"/>
<path d="M117.282 13.8379V16.53H119.706C119.753 16.53 119.8 16.5772 119.832 16.6087C119.863 16.6402 119.895 16.6874 119.911 16.7346C119.911 16.7818 119.911 16.8291 119.911 16.8763V19.0016C119.911 19.0488 119.863 19.096 119.832 19.1275C119.8 19.159 119.753 19.1905 119.706 19.2062C119.659 19.2062 119.612 19.222 119.564 19.2062H117.282V24.6218C117.282 25.3302 117.659 25.7238 118.572 25.7238H119.706C119.753 25.7238 119.785 25.7553 119.832 25.7868C119.863 25.8182 119.895 25.8497 119.911 25.897C119.926 25.9442 119.942 25.9914 119.911 26.0386V28.2899C119.911 28.3371 119.911 28.3843 119.911 28.4316C119.911 28.4788 119.863 28.5103 119.832 28.5418C119.8 28.5732 119.753 28.6047 119.706 28.6047C119.659 28.6047 119.612 28.6205 119.564 28.6047H118.037C115.298 28.6047 114.007 27.1406 114.007 25.0154V19.159H112.449C112.401 19.159 112.354 19.1118 112.323 19.0803C112.291 19.0488 112.26 19.0016 112.244 18.9544C112.228 18.9071 112.244 18.8599 112.244 18.8127V16.6874C112.244 16.6402 112.291 16.5929 112.323 16.5614C112.354 16.53 112.401 16.4985 112.449 16.4827C112.496 16.4827 112.543 16.467 112.59 16.4827H114.054V13.7907C114.054 13.7435 114.054 13.6962 114.054 13.6648C114.054 13.6175 114.086 13.586 114.133 13.5546C114.165 13.5231 114.196 13.4916 114.243 13.4916C114.29 13.4916 114.338 13.4758 114.369 13.4758H116.951C116.998 13.4758 117.03 13.4758 117.077 13.4916C117.124 13.5073 117.156 13.5388 117.187 13.5703C117.219 13.6018 117.234 13.6333 117.25 13.6805C117.25 13.7277 117.25 13.7592 117.25 13.8064V13.8379H117.282Z" fill="#8AC548"/>
<path d="M132.222 21.2215V23.882C132.222 26.8417 130.537 28.9512 126.822 28.9512C123.106 28.9512 121.422 26.8574 121.422 23.9765V21.3159C121.422 18.3563 123.106 16.1523 126.822 16.1523C130.537 16.1523 132.222 18.3405 132.222 21.2215ZM124.775 21.3789V23.7875C124.775 25.1572 125.389 26.0073 126.806 26.0073C128.223 26.0073 128.853 25.1572 128.853 23.7875V21.3789C128.853 20.025 128.239 19.0962 126.79 19.0962C125.342 19.0962 124.759 20.025 124.759 21.3789H124.775Z" fill="#8AC548"/>
<path d="M141.62 16.6402V19.0017C141.62 19.285 141.51 19.3952 141.227 19.3952H140.88C139.117 19.3952 138.078 20.1981 137.716 21.5205V28.4631C137.716 28.4946 137.684 28.5418 137.653 28.5733C137.621 28.6048 137.59 28.6363 137.558 28.652C137.527 28.6678 137.48 28.6835 137.448 28.6835H134.662C134.615 28.6835 134.583 28.6835 134.552 28.652C134.52 28.6363 134.489 28.6048 134.457 28.5733C134.426 28.5418 134.41 28.5104 134.394 28.4631C134.394 28.4316 134.394 28.3844 134.394 28.3372V16.7189C134.394 16.6717 134.394 16.6245 134.394 16.593C134.394 16.5458 134.441 16.5143 134.473 16.4828C134.504 16.4513 134.536 16.4356 134.583 16.4198C134.63 16.4198 134.662 16.4041 134.709 16.4198H137.228C137.495 16.4198 137.558 16.593 137.558 16.7662V18.4034C138.141 17.3172 139.211 16.2624 141.116 16.2624C143.021 16.2624 141.652 16.3411 141.652 16.6402H141.604H141.62Z" fill="#8AC548"/>
<path d="M52.4997 42.8993V39.9081C52.4997 37.2791 54.0583 35.4057 56.3882 35.4057C58.7182 35.4057 59.1275 36.2558 59.5368 37.0272V31.5644C59.5368 31.5172 59.5368 31.4857 59.5683 31.4542C59.584 31.4227 59.6155 31.3912 59.6312 31.3598C59.6627 31.3283 59.6942 31.3125 59.7414 31.2968C59.7729 31.2968 59.8202 31.281 59.8674 31.2968H62.5279C62.5594 31.2968 62.6066 31.3283 62.6381 31.3598C62.6696 31.3912 62.6854 31.4227 62.7011 31.4542C62.7168 31.4857 62.7326 31.5329 62.7326 31.5644V46.8192C62.7326 46.8665 62.7326 46.898 62.7168 46.9452C62.7168 46.9767 62.6854 47.0239 62.6539 47.0396C62.6224 47.0711 62.5909 47.0869 62.5437 47.1026C62.5122 47.1026 62.465 47.1184 62.4177 47.1026H59.9933C59.9618 47.1026 59.9146 47.1026 59.8831 47.0869C59.8516 47.0869 59.8202 47.0554 59.7887 47.0239C59.7572 46.9924 59.7414 46.9609 59.7257 46.9294C59.7257 46.898 59.71 46.8507 59.71 46.8192V45.7645C59.2534 46.5044 58.1199 47.3545 56.5614 47.3545C54.0898 47.3545 52.547 45.5598 52.547 42.8993H52.4997ZM59.5525 42.427V40.4119C59.5525 38.995 58.7024 38.1449 57.5689 38.1449C56.4354 38.1449 55.6483 39.0423 55.6483 40.4119V42.4427C55.6483 43.8124 56.2465 44.5995 57.5689 44.5995C58.8913 44.5995 59.5525 43.8124 59.5525 42.427Z" fill="#8AC548"/>
<path d="M75.8307 40.1286V42.616C75.8307 45.3867 74.2564 47.3703 70.7772 47.3703C67.2981 47.3703 65.7238 45.4025 65.7238 42.7104V40.2231C65.7238 37.4523 67.2981 35.39 70.7772 35.39C74.2564 35.39 75.8307 37.4366 75.8307 40.1286ZM68.8724 40.2703V42.5373C68.8724 43.8282 69.4548 44.6153 70.7772 44.6153C72.0996 44.6153 72.6979 43.8282 72.6979 42.5373V40.2703C72.6979 39.0109 72.1154 38.1293 70.7772 38.1293C69.4391 38.1293 68.8724 38.9951 68.8724 40.2703Z" fill="#8AC548"/>
<path d="M95.3832 35.8308V36.0354C95.3832 37.531 94.5961 38.6645 93.2894 39.184C94.848 39.4674 95.8555 40.8055 95.8555 42.6317V42.8678C95.8555 45.3867 94.3285 47.1184 91.0067 47.1184H85.0559C85.0087 47.1184 84.9772 47.0869 84.9457 47.0554C84.9142 47.0239 84.8827 46.9925 84.867 46.9452C84.867 46.898 84.867 46.8665 84.867 46.8193V32.2729C84.867 32.2257 84.867 32.1784 84.867 32.1469C84.867 32.0997 84.9142 32.0682 84.9457 32.0367C84.9772 32.0053 85.0087 31.9895 85.0559 31.9738C85.1031 31.9738 85.1346 31.958 85.1819 31.9738H90.8965C93.8562 31.9738 95.3832 33.4851 95.3832 35.878V35.8308ZM88.0786 34.7288V37.9246H90.4242C91.7151 37.9246 92.2347 37.2161 92.2347 36.3975V36.2558C92.2347 35.4214 91.7151 34.7445 90.4242 34.7445H88.0786V34.7288ZM88.0786 40.7425V44.3004H90.6289C91.7939 44.3004 92.6125 43.7809 92.6125 42.6632V42.4113C92.6125 41.3093 91.8253 40.7268 90.6289 40.7268H88.0786V40.7425Z" fill="#8AC548"/>
<path d="M101.507 42.3169V42.7577C101.507 43.9541 102.137 44.8042 103.601 44.8042C105.065 44.8042 105.427 44.269 105.805 43.5763C105.994 43.2614 106.073 43.23 106.403 43.3716L108.041 44.206C108.371 44.3634 108.387 44.5366 108.245 44.8515C107.537 46.4415 105.774 47.3546 103.585 47.3546C100.264 47.3546 98.5318 45.3867 98.5318 42.6947V40.0499C98.5318 37.4366 100.169 35.39 103.57 35.39C106.97 35.39 108.371 37.4366 108.371 39.9869V41.8131C108.371 42.128 108.261 42.3326 107.836 42.3326H101.507V42.3169ZM101.507 39.8925V40.286H105.506V39.8925C105.506 38.7747 104.876 37.9089 103.522 37.9089C102.168 37.9089 101.507 38.7747 101.507 39.8925Z" fill="#8AC548"/>
<path d="M117.518 35.3741C118.966 35.3741 119.926 36.2242 120.351 37.4522C121.202 36.2085 122.241 35.3741 123.689 35.3741C125.137 35.3741 126.838 36.9642 126.838 39.3571V46.8034C126.838 46.8507 126.838 46.8979 126.806 46.9294C126.775 46.9609 126.759 47.0081 126.727 47.0396C126.696 47.0711 126.649 47.0868 126.601 47.1026C126.554 47.1026 126.507 47.1183 126.46 47.1026H123.941C123.894 47.1026 123.862 47.0711 123.815 47.0396C123.783 47.0081 123.752 46.9766 123.736 46.9294C123.736 46.8822 123.705 46.8507 123.705 46.8034V39.9081C123.705 38.869 123.248 38.2551 122.445 38.2551C121.642 38.2551 120.981 38.9635 120.666 40.034V46.9294C120.666 46.9609 120.635 47.0081 120.603 47.0396C120.572 47.0711 120.54 47.0868 120.509 47.1026C120.477 47.1183 120.43 47.134 120.399 47.134H117.817C117.628 47.134 117.549 47.0081 117.549 46.8192V39.9238C117.549 38.8848 117.093 38.2708 116.29 38.2708C115.487 38.2708 114.794 39.0107 114.511 40.0812V46.9609C114.511 47.0081 114.479 47.0396 114.448 47.0711C114.416 47.1026 114.385 47.1183 114.338 47.134C114.29 47.134 114.259 47.1498 114.212 47.134H111.551C111.504 47.134 111.472 47.1026 111.441 47.0711C111.41 47.0396 111.394 47.0081 111.378 46.9609C111.378 46.9136 111.378 46.8822 111.378 46.8349V35.9566C111.378 35.9094 111.378 35.8779 111.409 35.8464C111.409 35.8149 111.457 35.7834 111.472 35.752C111.504 35.7205 111.535 35.7047 111.583 35.689C111.614 35.689 111.661 35.6732 111.709 35.689H114.259C114.29 35.689 114.338 35.7205 114.369 35.752C114.401 35.7834 114.416 35.8149 114.432 35.8464C114.432 35.8779 114.464 35.9251 114.432 35.9566V37.2633C115.109 36.3187 116.117 35.4214 117.565 35.4214L117.502 35.3741H117.518Z" fill="#8AC548"/>
<path d="M46.1396 33.0443C46.1396 35.0121 45.7618 36.9485 45.0061 38.7747C44.2505 40.5851 43.1485 42.2381 41.7631 43.6235C40.3777 45.0089 38.7247 46.1109 36.9143 46.8665C35.1039 47.6222 33.1518 48 31.1839 48H4.72017C5.25543 48 5.77494 47.8898 6.26297 47.7009C6.751 47.4962 7.1918 47.1971 7.56963 46.8193C7.94745 46.4415 8.24657 46.0007 8.45123 45.5126C8.65588 45.0246 8.76608 44.5051 8.76608 43.9698V30.4625L12.2295 30.3995C16.7005 30.305 20.9983 28.6363 24.3358 25.6609C27.6733 22.6855 29.8458 18.6081 30.444 14.1843C30.444 14.4362 30.4597 14.6881 30.4597 14.94V18.1043H31.1839C35.1511 18.1043 38.9451 19.6786 41.7474 22.4808C44.5496 25.2831 46.1239 29.0928 46.1239 33.06" fill="#8AC548"/>
<path d="M30.8848 15.7586C30.8848 15.5382 30.9005 15.3178 30.9005 15.0974C30.9005 11.083 29.3105 7.24172 26.4768 4.42374C23.6431 1.59003 19.8018 0 15.7874 0H15.5197C11.5525 0 7.74277 1.57429 4.94054 4.37652C2.13831 7.17874 0.564026 10.9885 0.564026 14.9557V19.2063L0.689969 30.6514V44.0013C0.689969 45.0561 1.14651 46.0636 1.90217 46.8035C2.65783 47.5434 3.66537 47.9528 4.73588 47.9528C5.8064 47.9528 6.81394 47.5434 7.5696 46.8035C8.32526 46.0636 8.76606 45.0561 8.7818 44.0013V30.4939L12.7805 30.4624C18.4479 30.8245 22.9346 29.2188 26.036 26.2276C28.8225 23.6615 30.5384 20.1351 30.8533 16.3568C30.869 16.2309 30.8848 16.1207 30.9163 15.9947C30.9163 15.916 30.9163 15.8531 30.9005 15.7743" fill="#008A3B"/>
<path d="M5.60169 25.2358C5.47574 25.2358 5.33406 25.1886 5.22386 25.1256C5.11366 25.0627 5.0192 24.9525 4.97197 24.8265C4.92474 24.7006 4.909 24.5746 4.92474 24.433C4.95623 24.307 5.0192 24.1811 5.09791 24.0866L22.1317 6.59629C22.1947 6.53332 22.2734 6.48609 22.3521 6.45461C22.4308 6.42312 22.5253 6.40738 22.604 6.40738C22.6827 6.40738 22.7771 6.40738 22.8559 6.45461C22.9346 6.48609 23.0133 6.53332 23.0763 6.59629C23.1392 6.65926 23.1865 6.73798 23.2179 6.81669C23.2494 6.89541 23.2652 6.98986 23.2652 7.06858C23.2652 7.14729 23.2652 7.24175 23.2179 7.32046C23.1865 7.39918 23.1392 7.47789 23.0763 7.54086L6.04249 25.0312C5.97951 25.0942 5.9008 25.1414 5.82209 25.1886C5.74337 25.2201 5.64891 25.2358 5.55446 25.2358H5.60169Z" fill="#8AC548"/>
<path d="M21.8169 14.4677H21.7224C19.6129 14.1843 17.2515 13.9167 16.8107 13.901C16.7005 13.9167 16.5745 13.901 16.4643 13.8695C16.1337 13.7435 15.8976 11.697 15.7559 7.74552C15.7559 7.65106 15.7559 7.5566 15.7874 7.47789C15.8189 7.39918 15.8661 7.32046 15.9291 7.24175C15.992 7.16303 16.0707 7.1158 16.1495 7.08432C16.2282 7.05283 16.3226 7.02135 16.4171 7.02135C16.5115 7.02135 16.5903 7.02135 16.6847 7.06858C16.7634 7.10006 16.8421 7.14729 16.9051 7.21026C16.9681 7.27323 17.0153 7.35195 17.0625 7.43066C17.094 7.50938 17.1098 7.60383 17.1098 7.69829C17.1727 9.57169 17.2672 11.634 17.3302 12.5786C18.0858 12.6258 19.4082 12.799 21.9113 13.1138C22.0845 13.1296 22.2419 13.224 22.3521 13.35C22.4623 13.4759 22.5253 13.6491 22.5096 13.8223C22.5096 13.9954 22.4151 14.1529 22.2892 14.2788C22.1632 14.389 21.9901 14.4677 21.8169 14.4677Z" fill="#8AC548"/>
<path d="M9.26984 21.363C9.17538 21.363 9.08092 21.3473 9.00221 21.3158C8.9235 21.2843 8.84478 21.2213 8.78181 21.1583C8.71884 21.0954 8.67161 21.0167 8.64012 20.9222C8.60864 20.8435 8.5929 20.749 8.5929 20.6546L8.90775 12.9563C8.90775 12.7831 9.00221 12.61 9.12815 12.484C9.2541 12.3581 9.42727 12.2951 9.61618 12.3108C9.78935 12.3108 9.96252 12.3896 10.0885 12.5312C10.2144 12.6572 10.2774 12.8304 10.2616 13.0193L9.96252 20.0091L16.4014 19.9461C16.5745 19.9461 16.7477 20.0249 16.8736 20.1508C16.9996 20.2767 17.0783 20.4499 17.0783 20.6231C17.0783 20.7963 16.9996 20.9694 16.8736 21.0954C16.7477 21.2213 16.5745 21.3 16.4014 21.3L9.2541 21.3787L9.26984 21.363Z" fill="#8AC548"/>
<path d="M37.418 33.1231C37.418 34.0047 37.1504 34.8548 36.6624 35.5947C36.1744 36.3189 35.4817 36.9014 34.663 37.232C33.8444 37.5626 32.9628 37.657 32.097 37.4838C31.2311 37.3107 30.444 36.8856 29.8142 36.2716C29.2003 35.6577 28.7752 34.8548 28.602 33.9889C28.4289 33.1231 28.5233 32.2257 28.8539 31.4228C29.1845 30.62 29.767 29.9115 30.4912 29.4235C31.2154 28.9355 32.0812 28.6678 32.9628 28.6678C33.8444 28.6678 34.1278 28.778 34.663 28.9984C35.1983 29.2188 35.6863 29.5494 36.1114 29.9588C36.5207 30.3681 36.8513 30.8561 37.0717 31.4071C37.2921 31.9424 37.418 32.5248 37.418 33.1073" fill="#008A3B"/>
</svg>
