<svg width="24" height="24" viewBox="0 0 24 24" fill="#000000" xmlns="http://www.w3.org/2000/svg">
<g clip-path="url(#clip0_4418_4893)">
<path opacity="0.4" d="M5.33012 19.4193C5.22012 19.4193 5.10011 19.3893 5.00011 19.3393L2.78011 18.2293C2.53011 18.0993 2.37012 17.8393 2.37012 17.5593V14.7793C2.37012 14.3693 2.71012 14.0293 3.12012 14.0293C3.53012 14.0293 3.87012 14.3693 3.87012 14.7793V17.0893L5.68011 17.9893C6.05011 18.1793 6.20011 18.6293 6.02011 18.9993C5.87011 19.2593 5.61012 19.4193 5.33012 19.4193Z"/>
<path d="M12 22.7507C11.94 22.7507 11.88 22.7407 11.83 22.7307C11.77 22.7207 11.71 22.6907 11.65 22.6607L9.43996 21.5607C9.06996 21.3707 8.91996 20.9207 9.09996 20.5507C9.28996 20.1807 9.73996 20.0307 10.11 20.2107L11.25 20.7807V19.2207C11.25 18.8107 11.59 18.4707 12 18.4707C12.41 18.4707 12.75 18.8107 12.75 19.2207V20.7807L13.89 20.2107C14.26 20.0307 14.71 20.1807 14.9 20.5507C15.09 20.9207 14.94 21.3707 14.56 21.5607L12.35 22.6607C12.29 22.6907 12.23 22.7107 12.17 22.7307C12.11 22.7407 12.06 22.7507 12 22.7507Z"/>
<path opacity="0.4" d="M18.6702 19.4191C18.4002 19.4191 18.1302 19.2691 18.0002 19.0091C17.8102 18.6391 17.9602 18.1891 18.3402 17.9991L20.1502 17.0991V14.7891C20.1502 14.3791 20.4902 14.0391 20.9002 14.0391C21.3102 14.0391 21.6502 14.3791 21.6502 14.7891V17.5691C21.6502 17.8491 21.4902 18.1091 21.2402 18.2391L19.0202 19.3491C18.8902 19.3891 18.7802 19.4191 18.6702 19.4191Z"/>
<path d="M12 14.4191C11.59 14.4191 11.25 14.0791 11.25 13.6691V11.3591L9.43996 10.4591C9.06996 10.2691 8.91996 9.81907 9.09996 9.44907C9.28996 9.07907 9.73996 8.92907 10.11 9.10907L12 10.0491L13.89 9.10907C14.26 8.92907 14.71 9.06907 14.9 9.44907C15.09 9.81907 14.94 10.2691 14.56 10.4591L12.75 11.3591V13.6691C12.75 14.0791 12.41 14.4191 12 14.4191Z"/>
<path opacity="0.4" d="M3.10986 9.96939C2.69986 9.96939 2.35986 9.62939 2.35986 9.21939V6.45939V6.44938C2.35986 6.38938 2.36986 6.32938 2.37986 6.27938C2.39986 6.19938 2.42986 6.12938 2.46986 6.05938C2.49986 6.00938 2.52986 5.96938 2.56986 5.92938C2.60986 5.88938 2.65986 5.84939 2.70986 5.81939C2.72986 5.80939 2.75986 5.78938 2.77986 5.77938L4.98986 4.67938C5.35986 4.49938 5.80986 4.63939 5.99986 5.01939C6.18986 5.38939 6.03987 5.83938 5.65987 6.02938L4.77986 6.46939L5.65987 6.90939C6.02987 7.09939 6.17986 7.54938 5.99986 7.91938C5.81986 8.28938 5.35986 8.43938 4.98986 8.25938L3.84986 7.68939V9.24939C3.85986 9.63939 3.52986 9.96939 3.10986 9.96939Z"/>
<path d="M14.2198 3.86077C14.1098 3.86077 13.9898 3.83077 13.8898 3.78077L11.9998 2.84077L10.1098 3.78077C9.73979 3.97077 9.28979 3.82078 9.09979 3.44078C8.90979 3.07078 9.05979 2.62077 9.43979 2.43077L11.6598 1.32078C11.8698 1.21078 12.1198 1.21078 12.3298 1.32078L14.5498 2.43077C14.9198 2.62077 15.0698 3.07078 14.8898 3.44078C14.7598 3.71078 14.4998 3.86077 14.2198 3.86077Z"/>
<path opacity="0.4" d="M20.8899 9.97026C20.4799 9.97026 20.1399 9.63026 20.1399 9.22026V7.66026L18.9999 8.23025C18.6299 8.42025 18.1799 8.27026 17.9899 7.89026C17.7999 7.52026 17.9499 7.07026 18.3299 6.88026L19.2099 6.44026L18.3299 6.00026C17.9599 5.81026 17.8099 5.36026 17.9899 4.99026C18.1699 4.62026 18.6299 4.47025 18.9999 4.65025L21.2099 5.75026C21.2299 5.76026 21.2599 5.77025 21.2799 5.79025C21.3399 5.82025 21.3899 5.87026 21.4399 5.92026C21.4699 5.96026 21.4999 6.00025 21.5299 6.04025C21.5699 6.11025 21.5999 6.18025 21.6199 6.26025C21.6299 6.32025 21.6399 6.38025 21.6399 6.43025V6.44026V9.20025C21.6399 9.64025 21.2999 9.97026 20.8899 9.97026Z"/>
</g>
<defs>
<clipPath id="clip0_4418_4893">
<rect width="24" height="24" fill="white"/>
</clipPath>
</defs>
</svg>