<svg width="24" height="24" viewBox="0 0 24 24" fill="#000000" xmlns="http://www.w3.org/2000/svg">
<path d="M16.44 3.589C17.633 4.575 18.489 5.931 18.831 7.481L18.84 7.527L22 2L16.44 3.589Z"/>
<path d="M7.56 3.589L2 2L5.158 7.527C5.509 5.931 6.366 4.574 7.548 3.599L7.56 3.589Z"/>
<path opacity="0.4" fill-rule="evenodd" clip-rule="evenodd" d="M12 1.9998C15.866 1.9998 19.0002 5.134 19.0002 9V10.9998C20.8502 11.9998 22.0002 14.962 22.0002 16.5C22.0002 19.538 17.523 22.0002 12 22.0002C6.47702 22.0002 1.99982 19.538 1.99982 16.5C1.99982 14.962 3.14986 11.9998 4.99982 10.9998V9C4.99982 5.134 8.13402 1.9998 12 1.9998ZM12 11.5002C8.68601 11.5002 6.00001 13.1792 6.00001 15.2502C6.00018 17.3211 8.68612 19.0002 12 19.0002C15.3139 19.0002 17.9998 17.3211 18 15.2502C18 13.1792 15.314 11.5002 12 11.5002Z"/>
<path fill-rule="evenodd" clip-rule="evenodd" d="M12 11.5002C15.314 11.5002 18 13.1792 18 15.2502C17.9998 17.3211 15.3139 19.0002 12 19.0002C8.6861 19.0002 6.00017 17.3211 6 15.2502C6 13.1792 8.686 11.5002 12 11.5002ZM10.0002 13.9998C9.4482 13.9998 9 14.448 9 15C9 15.552 9.4482 16.0002 10.0002 16.0002C10.5521 16.0001 10.9998 15.5519 10.9998 15C10.9998 14.4481 10.5521 13.9999 10.0002 13.9998ZM13.9998 13.9998C13.4479 13.9999 13.0002 14.4481 13.0002 15C13.0002 15.5519 13.4479 16.0001 13.9998 16.0002C14.5518 16.0002 15 15.552 15 15C15 14.448 14.5518 13.9998 13.9998 13.9998Z"/>
</svg>
