<svg width="24" height="24" viewBox="0 0 24 24" fill="#000000" xmlns="http://www.w3.org/2000/svg">
<g clip-path="url(#clip0_4418_4971)">
<path d="M12 2.58984V13.6098L2.65 20.1498C1.8 19.1398 1.75 17.6098 2.7 15.8998L5.82 10.2898L8.76 4.99984C9.65 3.39984 10.82 2.58984 12 2.58984Z"/>
<path opacity="0.6" d="M21.3499 20.1494C20.6999 20.9394 19.5699 21.4094 18.0599 21.4094H5.9399C4.4299 21.4094 3.2999 20.9394 2.6499 20.1494L11.9999 13.6094L21.3499 20.1494Z"/>
<path opacity="0.4" d="M21.35 20.1498L12 13.6098V2.58984C13.18 2.58984 14.35 3.39984 15.24 4.99984L18.18 10.2898L21.3 15.8998C22.25 17.6098 22.2 19.1398 21.35 20.1498Z"/>
</g>
<defs>
<clipPath id="clip0_4418_4971">
<rect width="24" height="24" fill="white"/>
</clipPath>
</defs>
</svg>