<svg width="24" height="24" viewBox="0 0 24 24" fill="#000000"" xmlns="http://www.w3.org/2000/svg">
<path opacity="0.4" d="M8.33333 7C8.33333 8.66667 5 8.66667 5 11.1667V20.3333C5 21.2533 5.74667 22 6.66667 22H18.3333C19.2533 22 20 21.2533 20 20.3333V11.1667C20 8.66667 16.6667 8.66667 16.6667 7H8.33333ZM8.33333 13.6667H16.6667V17.8333H8.33333V13.6667Z" />
<path d="M7.5 2.83333C7.5 2.37333 7.87333 2 8.33333 2H16.6667C17.1267 2 17.5 2.37333 17.5 2.83333V4.5C17.5 4.96 17.1267 5.33333 16.6667 5.33333H8.33333C7.87333 5.33333 7.5 4.96 7.5 4.5V2.83333Z" />
</svg>
