<svg width="24" height="24" viewBox="0 0 24 24" fill="#000000" xmlns="http://www.w3.org/2000/svg">
<path d="M7.46175 16.4021C7.72267 16.3385 7.87369 16.0716 7.81481 15.8096C7.20001 13.0735 7.19999 10.2586 7.81477 7.52335C7.87367 7.26132 7.72265 6.99436 7.4617 6.93085C6.92241 6.79959 6.37855 6.71442 5.8331 6.68177C5.55746 6.66527 5.3334 6.89059 5.3334 7.16673V9.0982C5.3334 9.49084 4.90159 9.73028 4.56855 9.5223L3.16557 8.64612C2.9035 8.48246 2.55616 8.59329 2.4572 8.88599C1.82809 10.7468 1.86729 12.6942 2.45765 14.4468C2.55634 14.7398 2.90379 14.8507 3.166 14.687L4.56855 13.8111C4.90158 13.6031 5.3334 13.8425 5.3334 14.2352V16.1666C5.3334 16.4428 5.55746 16.6681 5.8331 16.6516C6.37857 16.6188 6.92244 16.5334 7.46175 16.4021Z" />
<path opacity="0.4" d="M14.4007 6.74987C14.5555 6.22675 14.2976 5.65688 13.7742 5.50297C12.8595 5.23398 11.9318 5.07157 11.0013 5.01891C10.5974 4.99606 10.2298 5.24309 10.0893 5.6224C8.59248 9.66227 8.69269 13.934 10.0896 17.7108C10.2299 18.0903 10.5975 18.3371 11.0014 18.3142C11.9313 18.2615 12.8584 18.0993 13.772 17.8308C14.2952 17.6771 14.5534 17.1077 14.399 16.5846C13.4755 13.4537 13.4242 10.0507 14.4007 6.74987Z" />
<path d="M17.2314 7.08316C16.7149 6.75602 16.0433 7.02057 15.8846 7.61099C15.1683 10.2757 15.1683 13.0549 15.8847 15.7215C16.0434 16.3122 16.7151 16.5769 17.2317 16.2495C18.7851 15.2654 20.251 13.9327 21.565 12.2459C21.8305 11.905 21.8305 11.4283 21.565 11.0874C20.2509 9.40005 18.7852 8.06734 17.2314 7.08316ZM18.0425 11.6667C17.6965 11.6667 17.4168 11.3867 17.4168 11.0417C17.4168 10.6967 17.6965 10.4167 18.0425 10.4167C18.3868 10.4167 18.6668 10.6967 18.6668 11.0417C18.6668 11.3867 18.3868 11.6667 18.0425 11.6667Z" />
</svg>
