<svg width="24" height="24" viewBox="0 0 24 24" fill="none" xmlns="http://www.w3.org/2000/svg">
<path d="M8.408 4H2C2 4 2.01 6.73 5.4 7.676C5.964 6.113 7.02 4.841 8.377 4.018L8.408 4Z" fill="black"/>
<path d="M15.592 4H22C22 4 21.99 6.73 18.6 7.676C18.036 6.113 16.98 4.841 15.623 4.018L15.592 4Z" fill="black"/>
<path d="M16 6C15.448 6 15 5.552 15 5V3C15 2.448 15.448 2 16 2C16.552 2 17 2.448 17 3V5C17 5.552 16.552 6 16 6Z" fill="black"/>
<path d="M8 6C7.448 6 7 5.552 7 5V3C7 2.448 7.448 2 8 2C8.552 2 9 2.448 9 3V5C9 5.552 8.552 6 8 6Z" fill="black"/>
<path opacity="0.4" d="M12 12C12.094 11.998 12.205 11.997 12.316 11.997C14.737 11.997 17.035 12.526 19.101 13.474L19 13.432V10C19 6.134 15.866 3 12 3C8.134 3 5 6.134 5 10V13.432C6.964 12.526 9.262 11.997 11.684 11.997C11.795 11.997 11.906 11.998 12.017 12H12Z" fill="black"/>
<path fill-rule="evenodd" clip-rule="evenodd" d="M12 12C17.5229 12 22 14.2389 22.0002 16.9998C22.0002 19.7608 17.523 22.0002 12 22.0002C6.47702 22.0002 1.99982 19.7608 1.99982 16.9998C2.00003 14.2389 6.47715 12 12 12ZM7.99982 15C6.89497 15.0001 6.00012 15.895 6.00001 16.9998C6.00001 18.1047 6.89491 19.0001 7.99982 19.0002C9.10482 19.0002 10.0002 18.1048 10.0002 16.9998C10.0001 15.8949 9.10475 15 7.99982 15ZM16.0002 15C14.8953 15 13.9999 15.8949 13.9998 16.9998C13.9998 18.1048 14.8952 19.0002 16.0002 19.0002C17.1051 19.0001 18 18.1047 18 16.9998C17.9999 15.895 17.1051 15.0001 16.0002 15Z" fill="black"/>
</svg>
