<svg width="24" height="24" viewBox="0 0 24 24" fill="#000000" xmlns="http://www.w3.org/2000/svg">
<g clip-path="url(#clip0_4418_4965)">
<path opacity="0.4" d="M19.5 9.9707V19.0007C19.5 21.0007 19 22.0007 16.5 22.0007H7.5C5 22.0007 4.5 21.0007 4.5 19.0007V9.9707C4.66 9.9907 4.83 10.0007 5 10.0007H19C19.17 10.0007 19.34 9.9907 19.5 9.9707Z"/>
<path d="M22 5V7C22 8.83 21.17 9.82 19.5 9.97C19.34 9.99 19.17 10 19 10H5C4.83 10 4.66 9.99 4.5 9.97C2.83 9.82 2 8.83 2 7V5C2 3 3 2 5 2H19C21 2 22 3 22 5Z"/>
<path d="M13.8202 14.75H10.1802C9.77018 14.75 9.43018 14.41 9.43018 14C9.43018 13.59 9.77018 13.25 10.1802 13.25H13.8202C14.2302 13.25 14.5702 13.59 14.5702 14C14.5702 14.41 14.2302 14.75 13.8202 14.75Z"/>
</g>
<defs>
<clipPath id="clip0_4418_4965">
<rect width="24" height="24" fill="white"/>
</clipPath>
</defs>
</svg>