<svg width="24" height="24" viewBox="0 0 24 24" fill="#000000" xmlns="http://www.w3.org/2000/svg">
<path d="M22 12.016C22 16.746 18.432 19.686 12.983 20C12.9873 19.9632 12.9897 19.9261 12.99 19.889C12.8036 18.0133 13.2287 16.1276 14.2019 14.5134C15.1751 12.8991 16.6442 11.6428 18.39 10.932C18.6341 10.8275 18.8268 10.6303 18.9255 10.3838C19.0242 10.1373 19.021 9.86163 18.9165 9.6175C18.812 9.37337 18.6148 9.18075 18.3683 9.08201C18.1218 8.98327 17.8461 8.9865 17.602 9.091C15.695 9.85237 14.0521 11.1544 12.8753 12.8371C11.6985 14.5197 11.039 16.5096 10.978 18.562C9.492 16.016 7.632 10.7 15 7.006L21 4C21 4 22 5 22 12.016Z"/>
<path opacity="0.4" d="M7.95603 11.673C8.4063 10.2186 9.22072 8.90331 10.322 7.852C7.59873 7.19761 5.08194 5.87356 3.00003 4C3.00003 4 2.00003 5 2.00003 12.016C1.96142 13.5861 2.4258 15.1274 3.32534 16.4148C4.22487 17.7022 5.51245 18.6683 7.00003 19.172C7.7631 19.4089 8.54299 19.5877 9.33303 19.707L9.25703 19.576C8.51133 18.4177 8.01113 17.1187 7.78736 15.7594C7.56359 14.4 7.62099 13.0093 7.95603 11.673Z"/>
</svg>
