<svg width="24" height="24" viewBox="0 0 24 24" fill="#000000" xmlns="http://www.w3.org/2000/svg">
<g clip-path="url(#clip0_4418_5094)">
<path d="M16.7502 3.56V2C16.7502 1.59 16.4102 1.25 16.0002 1.25C15.5902 1.25 15.2502 1.59 15.2502 2V3.5H8.75022V2C8.75022 1.59 8.41022 1.25 8.00022 1.25C7.59022 1.25 7.25022 1.59 7.25022 2V3.56C4.55022 3.81 3.24023 5.42 3.04023 7.81C3.02023 8.1 3.26023 8.34 3.54023 8.34H20.4602C20.7502 8.34 20.9902 8.09 20.9602 7.81C20.7602 5.42 19.4502 3.81 16.7502 3.56Z"/>
<path opacity="0.4" d="M20 9.83984C20.55 9.83984 21 10.2898 21 10.8398V16.9998C21 19.9998 19.5 21.9998 16 21.9998H8C4.5 21.9998 3 19.9998 3 16.9998V10.8398C3 10.2898 3.45 9.83984 4 9.83984H20Z"/>
<path d="M8.5 15.0009C8.37 15.0009 8.24 14.9709 8.12 14.9209C8 14.8709 7.89001 14.8009 7.79001 14.7109C7.70001 14.6109 7.62999 14.5009 7.57999 14.3809C7.52999 14.2609 7.5 14.1309 7.5 14.0009C7.5 13.8709 7.52999 13.7409 7.57999 13.6209C7.62999 13.5009 7.70001 13.3909 7.79001 13.2909C7.89001 13.2009 8 13.1309 8.12 13.0809C8.36 12.9809 8.64 12.9809 8.88 13.0809C9 13.1309 9.10999 13.2009 9.20999 13.2909C9.29999 13.3909 9.37001 13.5009 9.42001 13.6209C9.47001 13.7409 9.5 13.8709 9.5 14.0009C9.5 14.1309 9.47001 14.2609 9.42001 14.3809C9.37001 14.5009 9.29999 14.6109 9.20999 14.7109C9.10999 14.8009 9 14.8709 8.88 14.9209C8.76 14.9709 8.63 15.0009 8.5 15.0009Z"/>
<path d="M12 15.0006C11.87 15.0006 11.74 14.9706 11.62 14.9206C11.5 14.8706 11.39 14.8006 11.29 14.7106C11.11 14.5206 11 14.2606 11 14.0006C11 13.7406 11.11 13.4806 11.29 13.2906C11.39 13.2006 11.5 13.1305 11.62 13.0805C11.86 12.9705 12.14 12.9705 12.38 13.0805C12.5 13.1305 12.61 13.2006 12.71 13.2906C12.89 13.4806 13 13.7406 13 14.0006C13 14.2606 12.89 14.5206 12.71 14.7106C12.61 14.8006 12.5 14.8706 12.38 14.9206C12.26 14.9706 12.13 15.0006 12 15.0006Z"/>
<path d="M8.5 18.5009C8.37 18.5009 8.24 18.4709 8.12 18.4209C8 18.3709 7.89001 18.3009 7.79001 18.2109C7.61001 18.0209 7.5 17.7609 7.5 17.5009C7.5 17.2409 7.61001 16.9809 7.79001 16.7909C7.89001 16.7009 8 16.6309 8.12 16.5809C8.36 16.4809 8.64 16.4809 8.88 16.5809C9 16.6309 9.10999 16.7009 9.20999 16.7909C9.38999 16.9809 9.5 17.2409 9.5 17.5009C9.5 17.7609 9.38999 18.0209 9.20999 18.2109C9.10999 18.3009 9 18.3709 8.88 18.4209C8.76 18.4709 8.63 18.5009 8.5 18.5009Z"/>
</g>
<defs>
<clipPath id="clip0_4418_5094">
<rect width="24" height="24" fill="white"/>
</clipPath>
</defs>
</svg>