<svg width="24" height="24" viewBox="0 0 24 24" fill="#000000" xmlns="http://www.w3.org/2000/svg">
<path d="M12 2C12 2 10 4 10 6C10 7.105 10.895 8 12 8C13.105 8 14 7.105 14 6C14 4 12 2 12 2Z"/>
<path opacity="0.4" d="M13.971 6.225C13.862 7.226 13.021 7.998 12 7.998C10.979 7.998 10.138 7.226 10.03 6.233L10.029 6.224C7.661 7.904 4 11.261 4 15.999C4 21.999 12 21.999 12 21.999C12 21.999 20 21.999 20 15.999C20 11.261 16.339 7.905 13.971 6.225Z"/>
<path d="M12 14C10 14 9 17 9 17L12 18L15 17C15 17 14 14 12 14Z"/>
</svg>
