<svg width="24" height="24" viewBox="0 0 24 24" fill="#000000" xmlns="http://www.w3.org/2000/svg">
<g clip-path="url(#clip0_4418_5053)">
<path opacity="0.4" d="M18.9401 5.41945L13.7701 2.42945C12.7801 1.85945 11.2301 1.85945 10.2401 2.42945L5.02008 5.43945C2.95008 6.83945 2.83008 7.04945 2.83008 9.27945V14.7095C2.83008 16.9395 2.95008 17.1595 5.06008 18.5795L10.2301 21.5695C10.7301 21.8595 11.3701 21.9995 12.0001 21.9995C12.6301 21.9995 13.2701 21.8595 13.7601 21.5695L18.9801 18.5595C21.0501 17.1595 21.1701 16.9495 21.1701 14.7195V9.27945C21.1701 7.04945 21.0501 6.83945 18.9401 5.41945Z"/>
<path d="M12 15.25C13.7949 15.25 15.25 13.7949 15.25 12C15.25 10.2051 13.7949 8.75 12 8.75C10.2051 8.75 8.75 10.2051 8.75 12C8.75 13.7949 10.2051 15.25 12 15.25Z"/>
</g>
<defs>
<clipPath id="clip0_4418_5053">
<rect width="24" height="24" fill="white"/>
</clipPath>
</defs>
</svg>