<svg width="24" height="24" viewBox="0 0 24 24" fill="#000000" xmlns="http://www.w3.org/2000/svg">
<path opacity="0.4" d="M12 2C10.4641 2.14527 9.03774 2.85846 8 4C6.76647 5.15736 5.77707 6.54991 5.0901 8.0956C4.40313 9.64129 4.03248 11.3088 4 13C4 16 6 22 12 22C18 22 20 16 20 13C19.9675 11.3088 19.5969 9.64129 18.9099 8.0956C18.2229 6.54991 17.2335 5.15736 16 4C14.9623 2.85846 13.5359 2.14527 12 2Z"/>
<path d="M12 19C11.1379 19.0104 10.2898 18.7811 9.55034 18.3377C8.81087 17.8944 8.20907 17.2543 7.81202 16.489C7.68233 16.2576 7.64987 15.9842 7.72179 15.7288C7.79371 15.4735 7.96412 15.2572 8.19552 15.1275C8.3101 15.0633 8.4362 15.0223 8.56663 15.0068C8.69706 14.9913 8.82927 15.0017 8.95569 15.0373C9.21102 15.1092 9.42733 15.2796 9.55702 15.511C9.78024 15.966 10.1287 16.3478 10.5615 16.6116C10.9942 16.8754 11.4933 17.0101 12 17C12.2652 17 12.5196 17.1054 12.7071 17.2929C12.8947 17.4804 13 17.7348 13 18C13 18.2652 12.8947 18.5196 12.7071 18.7071C12.5196 18.8946 12.2652 19 12 19Z"/>
</svg>
