<svg width="24" height="24" viewBox="0 0 24 24" fill="#000000" xmlns="http://www.w3.org/2000/svg">
<g clip-path="url(#clip0_4418_169495)">
<path opacity="0.4" d="M16.1898 2H7.81976C4.17976 2 2.00977 4.17 2.00977 7.81V16.18C2.00977 19.82 4.17976 21.99 7.81976 21.99H16.1898C19.8298 21.99 21.9998 19.82 21.9998 16.18V7.81C21.9998 4.17 19.8298 2 16.1898 2Z"/>
<path d="M10.1098 11.1494H7.45981C6.82981 11.1494 6.31982 11.6594 6.31982 12.2894V17.4094H10.1098V11.1494Z"/>
<path opacity="0.4" d="M12.7596 6.59961H11.2396C10.6096 6.59961 10.0996 7.10962 10.0996 7.73962V17.3997H13.8896V7.73962C13.8896 7.10962 13.3896 6.59961 12.7596 6.59961Z"/>
<path d="M16.5499 12.8496H13.8999V17.3997H17.6899V13.9896C17.6799 13.3596 17.1699 12.8496 16.5499 12.8496Z"/>
</g>
<defs>
<clipPath id="clip0_4418_169495">
<rect width="24" height="24" fill="white"/>
</clipPath>
</defs>
</svg>