<svg width="24" height="24" viewBox="0 0 24 24" fill="#000000" xmlns="http://www.w3.org/2000/svg">
<path opacity="0.4" d="M7.39635 17.5032C5.83395 15.9406 3.80811 15.4344 2.87067 16.3718C1.93323 17.3093 2.43939 19.3344 4.00203 20.8968C4.93875 21.8342 6.45891 21.8342 7.39659 20.8968C8.33427 19.9594 8.33331 18.439 7.39635 17.5032Z" />
<path d="M21.6 6.80016L19.9999 6.39984C19.9999 5.95872 19.8727 5.55096 19.6649 5.19504L20.1406 4.51536C20.4569 4.06224 20.346 3.43896 19.8946 3.12312C19.4736 2.8272 18.9111 2.91528 18.5791 3.29496C18.5244 2.79336 18.115 2.39976 17.6002 2.39976C17.0861 2.39976 16.6759 2.7936 16.6215 3.29496C16.2893 2.916 15.7275 2.82768 15.3065 3.12312C14.8846 3.41832 14.7751 3.97632 15.0173 4.4184C14.5291 4.29816 14.0182 4.548 13.8418 5.03088C13.6527 5.54976 13.9198 6.1248 14.4394 6.31368L15.2002 6.59016V7.2C15.2002 7.87512 14.9199 8.48304 14.4713 8.91888C15.8561 9.65952 16.8 11.1197 16.8 12.7999C16.8 14.5663 15.3663 16.0001 13.6001 16.0001C12.7447 16.0001 11.9422 15.6679 11.3405 15.065L9.87554 13.6001L10.7239 12.7517L12.1891 14.2166C12.5643 14.593 13.0656 14.8003 13.6001 14.8003C14.7031 14.8003 15.6 13.9034 15.6 12.8002C15.6 11.0357 14.1651 9.6 12.4001 9.6H3.45002L2.40002 10.65L9.07514 17.3251C10.2315 18.4846 11.8313 19.2 13.6001 19.2L14.3525 20.7041L13.2 20.8001V21.6H18V20.4L15.6406 20.5968L14.8781 19.0718C17.8008 18.4798 19.9999 15.8976 19.9999 12.7999V9.47712C20.1195 9.5484 20.2507 9.6 20.4 9.6C20.8414 9.6 21.1999 9.24144 21.1999 8.79984C21.1999 8.57904 21.1102 8.37888 20.9655 8.23464L20.4499 7.71912L21.6 6.99984V6.80016ZM18.1001 6.6C17.8243 6.6 17.5999 6.37632 17.5999 6.09984C17.5999 5.82336 17.8243 5.60016 18.1001 5.60016C18.3756 5.60016 18.6 5.82336 18.6 6.09984C18.6 6.37632 18.3756 6.6 18.1001 6.6Z" />
<path d="M19 6C19 6.55228 18.5523 7 18 7C17.4477 7 17 6.55228 17 6C17 5.44771 17.4477 5 18 5C18.5523 5 19 5.44771 19 6Z" />
</svg>
