<svg width="24" height="24" viewBox="0 0 24 24" fill="#000000" xmlns="http://www.w3.org/2000/svg">
<path opacity="0.4" d="M19.919 4.082C18.5826 2.749 16.7721 2.00042 14.8845 2.00042C12.997 2.00042 11.1864 2.749 9.85002 4.082L4.08202 9.85C2.76351 11.1884 2.02754 12.9938 2.03453 14.8725C2.04153 16.7513 2.79091 18.5511 4.11934 19.8797C5.44777 21.2082 7.24752 21.9578 9.12629 21.965C11.005 21.9722 12.8105 21.2364 14.149 19.918L19.919 14.15C21.2517 12.8136 22.0001 11.0033 22.0001 9.116C22.0001 7.22868 21.2517 5.41838 19.919 4.082Z"/>
<path d="M12.735 18.5C11.7647 19.4051 10.481 19.8982 9.15426 19.8751C7.82757 19.8521 6.56166 19.3148 5.62341 18.3766C4.68515 17.4383 4.14788 16.1724 4.12486 14.8457C4.10183 13.519 4.59486 12.2352 5.49999 11.265L8.38099 8.38L15.619 15.619L12.735 18.5Z"/>
</svg>
