<svg width="24" height="24" viewBox="0 0 24 24" fill="#000000" xmlns="http://www.w3.org/2000/svg">
<path opacity="0.4" d="M20.5947 1.7998C21.5939 1.79994 22.4042 2.61016 22.4043 3.60938V19.9941C22.4043 20.9935 21.594 21.8035 20.5947 21.8037H4.20996C3.2106 21.8037 2.40039 20.9936 2.40039 19.9941V3.60938C2.40047 2.61008 3.21065 1.7998 4.20996 1.7998H20.5947Z" />
<path d="M8.78711 9.81152C9.03619 9.81178 9.23818 10.0136 9.23828 10.2627V18.3193C9.23828 18.5685 9.03626 18.7712 8.78711 18.7715H6.86426C6.6151 18.7712 6.41309 18.5686 6.41309 18.3193V10.2627C6.41319 10.0136 6.61516 9.81177 6.86426 9.81152H8.78711Z" />
<path d="M15.999 9.67578C19.301 9.67605 19.2822 12.7619 19.2822 14.457V18.3555C19.2822 18.5846 19.0963 18.7713 18.8672 18.7715H16.8047C16.5754 18.7715 16.3896 18.5847 16.3896 18.3555V14.5771C16.3896 14.0134 16.5546 12.1064 14.916 12.1064C13.6452 12.1066 13.3877 13.4114 13.3359 13.9971V18.3555C13.3359 18.5846 13.15 18.7712 12.9209 18.7715H10.9258C10.6965 18.7715 10.5107 18.5847 10.5107 18.3555V10.2266C10.5107 9.99731 10.6965 9.81152 10.9258 9.81152H12.9209C13.1499 9.81177 13.3359 9.99746 13.3359 10.2266V10.9297C13.8072 10.2224 14.5077 9.67578 15.999 9.67578Z" />
<path d="M7.8252 5.40039C8.83357 5.40039 9.65137 6.21819 9.65137 7.22656C9.65111 8.23472 8.83346 9.05176 7.8252 9.05176C6.8172 9.0515 6.00026 8.23456 6 7.22656C6 6.21835 6.81704 5.40065 7.8252 5.40039Z" />
</svg>
